<?xml version="1.0" standalone="no"?>
<!DOCTYPE svg PUBLIC "-//W3C//DTD SVG 20010904//EN"
 "http://www.w3.org/TR/2001/REC-SVG-20010904/DTD/svg10.dtd">
<svg version="1.0" xmlns="http://www.w3.org/2000/svg"
 width="500.000000pt" height="500.000000pt" viewBox="0 0 500.000000 500.000000"
 preserveAspectRatio="xMidYMid meet">
<metadata>
Created by potrace 1.14, written by Peter Selinger 2001-2017
</metadata>
<g transform="translate(0.000000,500.000000) scale(0.100000,-0.100000)"
fill="#000000" stroke="none">
<path d="M2514 4478 c-9 -36 -7 -575 2 -675 5 -53 4 -63 -10 -63 -9 0 -16 8
-16 20 0 11 -4 20 -10 20 -6 0 -10 -41 -11 -102 0 -57 -1 -146 -3 -198 -1 -52
-4 -142 -5 -200 -1 -66 -5 -98 -10 -85 -12 29 -20 325 -21 743 0 315 -2 362
-15 362 -13 0 -15 -48 -15 -370 0 -219 -4 -370 -9 -370 -16 0 -20 47 -23 247
l-3 192 -23 -2 -23 -1 2 -246 c1 -135 4 -247 8 -250 10 -8 0 -160 -10 -160
-14 0 -29 46 -29 91 0 21 -4 39 -10 39 -10 0 -14 -78 -11 -194 3 -70 -7 -136
-20 -136 -5 0 -9 77 -9 177 0 97 -3 174 -6 171 -3 -3 -5 -47 -5 -97 0 -74 -2
-91 -14 -91 -12 0 -15 21 -16 113 -1 61 -1 126 0 142 1 17 -5 64 -12 105 l-14
75 -8 -75 c-4 -41 -8 -102 -10 -135 -1 -34 -7 -70 -13 -81 -12 -21 -13 -20
-15 45 -3 76 -22 57 -22 -21 0 -40 -3 -95 -6 -121 -3 -26 -2 -50 3 -53 5 -3 5
-11 0 -17 -9 -11 -12 -28 -13 -71 0 -11 6 -23 13 -27 8 -6 9 -9 2 -9 -7 0 -15
-7 -18 -16 -4 -10 -2 -13 6 -8 7 5 8 3 3 -6 -4 -7 -8 -35 -8 -62 1 -26 -3 -48
-8 -48 -5 0 -9 17 -9 39 0 49 -25 111 -45 111 -11 0 -14 -7 -10 -22 6 -26 -4
-45 -25 -50 -18 -4 -17 -26 -19 355 -1 266 -3 307 -16 307 -8 0 -15 -1 -16 -2
0 -2 -5 -131 -10 -288 -5 -157 -9 -298 -9 -315 l-1 -30 -9 28 c-5 15 -10 115
-11 222 -2 107 -7 195 -11 195 -10 0 -18 -16 -11 -24 10 -10 10 -75 -1 -69 -5
4 -7 -1 -3 -11 4 -9 3 -15 -2 -11 -6 3 -14 -3 -20 -12 -8 -14 -11 -15 -11 -3
-1 10 -4 9 -10 -5 -7 -15 -9 -16 -9 -4 -1 9 6 22 14 29 8 7 15 9 15 4 0 -17
20 21 20 38 0 11 -5 15 -14 12 -8 -3 -19 3 -25 15 -15 27 -14 34 5 27 10 -4
13 -2 8 6 -4 7 -3 8 4 4 16 -10 51 15 45 31 -4 10 -9 8 -21 -8 -13 -18 -17
-20 -26 -8 -27 35 -32 14 -34 -157 -2 -110 1 -173 7 -170 5 4 13 2 16 -4 4 -6
1 -9 -7 -8 -7 2 -14 -7 -16 -19 -2 -13 -9 -23 -15 -23 -7 0 -6 -5 3 -11 11 -8
12 -12 2 -16 -6 -2 -10 -9 -6 -14 3 -5 1 -9 -5 -9 -6 0 -8 -7 -5 -15 4 -8 2
-15 -4 -15 -16 0 -22 44 -13 94 5 29 5 46 -1 46 -6 0 -7 11 -4 27 5 17 3 29
-6 34 -10 7 -10 9 0 9 8 0 12 23 12 80 0 74 -2 80 -20 80 -20 0 -21 5 -18 164
3 156 2 165 -16 170 -11 3 -23 3 -28 0 -4 -3 -8 -70 -8 -150 0 -123 -2 -144
-15 -144 -14 0 -16 37 -16 318 1 375 -2 478 -11 488 -10 9 -39 -16 -32 -28 9
-14 17 -1072 9 -1116 -14 -76 -23 -3 -31 243 -6 239 -10 264 -37 265 -4 0 -7
-165 -7 -367 0 -337 -2 -418 -12 -428 -2 -2 -9 5 -16 15 -7 12 -8 20 -2 20 5
0 10 5 10 11 0 5 -4 8 -9 5 -9 -6 -21 98 -21 197 0 37 -3 67 -8 67 -4 0 -6 21
-4 48 3 35 1 44 -8 36 -14 -14 -18 -35 -19 -100 -1 -43 -4 -53 -21 -57 -11 -3
-25 2 -32 11 -10 12 -10 14 0 8 9 -5 12 3 12 28 0 20 -4 36 -9 36 -5 0 -11 43
-13 95 -3 92 -16 131 -37 110 -5 -6 -11 -81 -12 -167 -2 -87 -7 -158 -11 -158
-5 0 -8 9 -8 19 0 10 -7 21 -15 25 -12 4 -15 -6 -16 -59 -2 -79 -2 -81 -11
-91 -4 -4 -10 -1 -12 7 -5 14 -15 383 -16 537 0 68 -3 82 -16 82 -12 0 -15
-11 -14 -52 5 -152 -1 -288 -11 -288 -6 0 -9 9 -6 19 3 13 -2 21 -16 25 -20 5
-20 9 -13 193 4 103 6 204 6 223 -1 31 -7 133 -9 166 -1 7 -7 14 -13 17 -10 3
-13 -21 -13 -102 0 -58 -4 -109 -9 -113 -6 -4 -6 -12 1 -20 7 -9 10 -136 8
-393 -4 -455 -3 -425 -16 -425 -6 0 -9 18 -8 45 2 24 0 47 -4 51 -4 4 -7 79
-7 168 0 123 -3 157 -12 148 -7 -7 -13 -61 -15 -144 -3 -76 -9 -135 -14 -139
-6 -3 -11 -10 -11 -15 -1 -19 -11 -34 -19 -28 -5 3 -9 -22 -9 -55 0 -34 -4
-61 -9 -61 -5 0 -10 62 -10 137 -2 134 -11 180 -27 132 -4 -13 -7 -81 -6 -151
1 -102 -2 -127 -14 -132 -11 -4 -14 5 -15 42 0 35 -3 42 -9 27 -10 -23 -10
-24 -16 75 -3 41 -9 91 -14 110 -8 33 -8 32 -10 -20 -1 -30 -2 -62 -1 -72 1
-9 -4 -20 -11 -24 -7 -4 -10 -4 -6 1 4 4 4 13 -1 19 -5 6 -11 71 -12 144 -2
73 -5 150 -7 169 l-5 37 -15 -30 c-11 -22 -15 -55 -13 -131 l2 -103 -54 0
c-53 0 -54 0 -66 -37 -30 -91 -62 -212 -67 -253 -3 -25 -12 -73 -20 -108 -8
-35 -14 -91 -14 -124 0 -53 2 -59 15 -48 9 7 18 10 22 7 8 -9 -16 -37 -32 -37
-8 0 -11 -8 -8 -20 3 -11 12 -20 19 -20 10 0 14 -14 14 -50 0 -38 -4 -50 -15
-50 -8 0 -15 -9 -15 -20 0 -11 7 -20 15 -20 16 0 21 -35 6 -44 -5 -4 -6 -20
-1 -39 4 -17 15 -66 25 -107 25 -110 68 -235 81 -233 6 1 10 -14 10 -37 -1
-29 2 -36 11 -28 9 7 11 5 8 -9 -2 -11 1 -26 7 -34 8 -12 9 -12 5 1 -2 8 3 22
11 30 14 13 15 12 9 -2 -3 -9 -1 -19 6 -22 9 -3 8 -8 -3 -16 -11 -9 -12 -13
-2 -17 7 -2 24 -29 38 -59 14 -30 29 -54 34 -54 5 0 13 12 18 28 6 15 11 22
11 15 1 -8 10 -9 33 -2 28 8 68 34 43 28 -16 -4 -65 20 -65 31 0 6 5 8 12 4 7
-5 8 -3 4 5 -5 7 -14 10 -22 7 -8 -3 -14 1 -14 9 0 8 6 15 13 15 14 0 17 11
17 73 0 25 4 36 11 31 8 -4 8 0 0 15 -8 15 -9 21 -1 21 6 0 8 5 5 10 -6 9 8
14 27 11 5 0 8 4 8 11 0 6 2 9 5 6 3 -3 2 -13 -1 -22 -5 -14 -9 -15 -15 -4 -6
9 -9 4 -9 -14 0 -16 5 -28 11 -28 5 0 7 -5 4 -11 -12 -18 -12 -68 -1 -74 6 -3
0 -3 -14 -1 -27 5 -27 6 27 -32 10 -7 12 -10 6 -7 -8 4 -13 -1 -13 -14 0 -24
4 -25 28 -10 14 9 17 24 16 87 -1 42 0 65 3 49 2 -15 8 -25 13 -22 4 3 5 -10
1 -28 -10 -48 -8 -61 12 -65 12 -2 17 3 17 18 0 12 4 19 9 16 5 -3 9 -34 9
-68 0 -73 11 -140 22 -133 7 4 21 166 21 240 0 22 3 56 8 75 9 37 9 40 16
-452 2 -198 5 -240 19 -259 16 -23 16 -22 16 28 0 32 5 53 13 56 9 4 9 8 1 14
-14 10 -26 280 -14 288 5 3 11 -3 14 -12 3 -10 4 -6 2 10 -2 15 1 30 6 33 5 3
6 14 3 25 -4 10 -2 19 3 19 6 0 10 -38 11 -88 1 -167 13 -314 25 -302 6 6 12
92 14 230 4 199 11 250 29 205 5 -14 8 -14 29 0 l24 15 0 -114 c0 -122 4 -146
26 -146 13 0 29 90 27 157 0 27 3 33 21 33 12 0 27 -9 34 -21 18 -28 42 -8 40
35 -3 73 15 215 28 220 10 4 14 -4 15 -27 0 -18 2 -41 5 -52 2 -11 4 -141 4
-290 1 -148 5 -288 9 -310 l8 -40 11 27 c6 15 14 112 18 217 6 176 14 222 27
172 2 -11 2 -181 -1 -378 -4 -338 -4 -360 13 -367 10 -3 20 -5 22 -2 3 2 4
128 4 280 -1 247 0 276 15 276 14 0 16 -17 12 -140 l-3 -141 30 3 30 3 -2 163
-2 162 25 0 26 0 -4 82 c-2 46 -7 89 -11 96 -5 7 -3 12 7 12 36 0 34 16 35
-231 l1 -176 25 -11 c34 -16 38 -15 31 5 -4 10 -4 14 0 10 8 -8 34 11 34 25 0
6 -6 6 -14 -1 -12 -10 -13 -8 -9 8 3 12 9 18 14 15 8 -5 14 193 9 285 -1 24 2
32 12 29 10 -4 14 -54 16 -234 3 -199 9 -260 26 -243 11 11 15 91 16 289 1
133 5 220 12 227 6 7 6 13 2 13 -5 0 -8 20 -6 45 5 51 32 66 32 17 0 -35 9
-45 27 -31 18 16 16 -1 -3 -23 -15 -16 -15 -18 0 -24 9 -3 14 -10 11 -14 -3
-5 6 -7 20 -4 22 4 25 1 25 -24 0 -15 -5 -33 -12 -40 -9 -9 -7 -13 5 -18 14
-5 17 -20 17 -81 0 -55 3 -74 13 -71 6 3 14 26 17 53 8 80 27 33 29 -75 2 -99
7 -130 20 -130 13 0 21 82 21 201 0 89 3 109 15 109 10 0 15 -16 18 -63 2 -34
4 -6 5 63 4 208 8 260 19 271 7 7 12 6 16 -5 4 -9 2 -16 -3 -16 -11 0 -4 -336
8 -354 8 -15 20 29 21 82 1 29 5 42 13 40 9 -3 11 -78 10 -289 0 -156 3 -300
7 -319 5 -19 9 -29 10 -21 1 7 7 11 14 8 9 -3 12 15 11 77 -1 91 2 106 23 106
13 0 14 -40 11 -305 -4 -289 -3 -305 14 -305 10 0 18 1 19 3 0 1 3 251 5 556
3 304 8 560 13 568 9 18 13 -28 16 -222 3 -191 6 -263 12 -242 2 9 8 17 13 17
5 0 7 7 4 15 -4 8 -2 15 4 15 7 0 11 -106 12 -302 3 -518 3 -513 20 -513 11 0
14 9 12 30 -5 60 -5 71 3 115 4 25 11 171 14 325 4 154 8 254 9 223 3 -73 9
-88 37 -88 23 0 23 3 29 143 4 78 6 174 5 212 -3 102 -1 117 14 112 15 -5 14
17 16 -324 1 -276 2 -283 21 -283 20 0 20 7 20 278 0 266 6 328 29 293 5 -7 7
-26 4 -41 -2 -16 1 -31 7 -35 5 -3 10 -19 10 -34 0 -18 5 -28 15 -28 11 0 15
11 15 38 0 21 5 41 10 44 6 3 10 12 9 18 0 9 -2 8 -6 -1 -2 -6 -9 -9 -14 -6
-6 3 -5 12 3 22 8 10 9 13 1 9 -9 -6 -12 31 -12 147 0 85 3 158 8 161 5 3 12
-43 15 -102 7 -126 9 -153 15 -147 2 2 13 -4 24 -13 11 -10 18 -13 15 -8 -3 6
1 24 8 40 10 24 13 26 14 9 0 -11 -4 -24 -10 -30 -6 -6 -3 -16 11 -28 21 -18
22 -18 16 6 -3 13 -1 30 4 38 9 12 10 11 5 -4 -5 -16 -4 -17 8 -6 9 6 15 19
14 28 -1 10 0 44 1 77 3 56 4 58 12 28 11 -39 24 -42 41 -10 14 25 14 28 16
75 1 19 6 31 12 27 6 -4 10 -67 10 -156 0 -119 3 -149 14 -149 7 0 18 15 24
33 8 26 10 10 11 -88 1 -80 -3 -125 -11 -133 -9 -9 -7 -13 5 -18 10 -4 17 -17
17 -34 0 -33 15 -48 24 -24 3 9 6 108 6 220 0 129 4 204 10 204 6 0 10 -6 11
-12 0 -7 1 -52 2 -100 1 -88 4 -94 39 -89 4 0 5 -6 2 -14 -4 -8 -2 -15 3 -15
11 0 16 29 16 92 0 27 3 48 8 48 4 0 11 9 14 20 7 23 34 26 54 8 9 -9 12 -9 7
-1 -3 6 -3 13 1 16 5 2 3 3 -3 1 -6 -1 -17 2 -25 7 -12 8 -12 10 1 8 38 -4 44
0 28 19 -19 21 -20 52 -1 45 12 -5 15 2 12 25 -1 4 -5 6 -11 4 -5 -1 -7 2 -3
8 4 6 12 6 24 -2 16 -10 17 -14 5 -25 -10 -11 -11 -19 -4 -34 6 -10 13 -19 16
-19 3 0 3 4 -1 9 -3 6 3 15 12 21 15 9 14 10 -7 4 -25 -7 -25 -7 -6 15 11 11
21 19 24 16 3 -3 11 0 19 6 10 9 10 15 2 25 -14 17 2 19 19 2 8 -8 15 -8 27 2
12 10 15 10 15 -1 0 -8 5 -6 13 5 13 17 14 17 20 2 5 -14 11 -15 27 -6 21 11
28 54 10 65 -12 8 -3 46 14 57 8 5 7 8 -2 8 -7 0 -11 4 -7 9 3 6 15 8 26 6 25
-5 59 14 59 33 0 7 5 10 11 7 12 -8 9 -54 -5 -74 -6 -7 -11 -20 -12 -30 -2
-14 -1 -14 11 2 12 17 13 16 11 -7 0 -13 -5 -21 -11 -18 -5 3 -4 -1 3 -10 7
-8 9 -24 5 -33 -4 -13 -3 -16 5 -11 8 5 12 0 12 -13 0 -13 -5 -18 -13 -15 -8
3 -20 -2 -27 -11 -11 -13 -9 -15 14 -15 l26 0 -2 -222 c-1 -211 -2 -224 -22
-247 -12 -13 -16 -21 -10 -18 7 4 18 -1 25 -10 12 -15 12 -16 -3 -11 -9 4 -24
0 -35 -8 -17 -14 -16 -14 5 -4 16 8 22 8 22 0 0 -6 3 -9 8 -7 4 3 7 -5 7 -18
0 -13 -3 -21 -6 -19 -4 2 -9 -3 -12 -11 -4 -10 -1 -12 10 -8 12 5 14 3 8 -7
-11 -18 -6 -112 7 -127 19 -23 26 -4 24 64 -1 37 3 71 10 77 6 6 10 19 8 29
-1 9 2 17 8 17 5 0 2 7 -6 15 -13 14 -15 49 -12 248 3 206 5 232 19 235 10 2
17 8 17 14 0 5 -6 8 -14 5 -11 -5 -14 5 -12 46 0 29 5 58 10 65 10 16 -1 65
-13 58 -4 -3 -6 6 -3 19 2 14 8 22 13 19 5 -3 10 3 10 13 3 30 17 -97 18 -160
1 -55 2 -58 24 -55 21 3 22 9 25 86 2 69 5 83 17 78 8 -3 15 -1 15 4 0 6 -7
10 -15 10 -9 0 -15 9 -15 24 0 24 15 44 22 29 1 -5 105 -4 230 1 216 9 227 10
232 30 3 11 4 21 3 22 -1 1 -100 5 -221 8 -120 3 -222 9 -227 12 -16 10 -9 22
10 17 10 -3 22 0 26 7 5 8 11 7 23 -2 13 -10 14 -10 8 0 -11 18 63 10 75 -9 8
-12 10 -12 18 0 7 11 42 14 160 15 123 1 154 4 161 16 22 34 12 40 -65 40 -67
0 -75 2 -75 19 0 17 9 19 82 20 45 1 83 3 85 5 5 4 26 80 49 171 13 48 26 215
27 320 0 54 -14 188 -20 198 -4 7 -9 21 -10 32 -1 11 -4 29 -6 40 -3 11 -6 25
-7 30 -1 6 -5 0 -11 -13 -5 -13 -9 -61 -10 -108 -1 -46 -5 -84 -10 -84 -5 0
-9 8 -10 18 0 9 -2 26 -4 37 -2 11 -5 95 -6 188 -1 135 -4 167 -15 167 -11 0
-14 -19 -15 -77 0 -43 -3 -91 -5 -108 -3 -16 -5 -38 -5 -47 0 -10 -6 -18 -12
-18 -8 0 -7 -4 2 -9 13 -8 13 -12 0 -27 -9 -11 -9 -15 -1 -10 8 5 12 0 12 -13
0 -12 -7 -21 -15 -21 -8 0 -15 -9 -15 -20 0 -11 -5 -20 -11 -20 -6 0 -9 9 -6
20 3 12 -1 24 -11 30 -10 5 -12 10 -6 10 7 0 10 16 7 43 -6 56 -9 101 -11 165
-1 28 -6 52 -11 52 -5 0 -8 -11 -5 -25 2 -14 0 -25 -5 -25 -16 0 -21 60 -20
231 1 149 -1 171 -20 205 l-20 39 -1 -192 c0 -122 -4 -193 -10 -193 -5 0 -11
19 -11 43 -3 85 -5 107 -12 113 -4 4 -7 -65 -7 -154 0 -149 -1 -162 -18 -162
-21 0 -19 -25 -21 288 l-2 252 -25 0 c-23 0 -24 -3 -24 -67 0 -84 -10 -173
-20 -173 -4 0 -10 75 -13 168 -3 92 -8 176 -10 186 -4 19 -37 33 -37 15 0 -5
3 -9 8 -9 4 0 7 -11 7 -24 0 -13 -3 -22 -7 -19 -5 2 -8 -100 -8 -226 0 -147
-4 -231 -10 -231 -6 0 -10 28 -10 65 0 37 -4 65 -10 65 -5 0 -10 -13 -10 -30
0 -24 -4 -30 -21 -30 -11 0 -17 -4 -14 -10 3 -5 3 -10 -2 -10 -4 0 -6 -27 -5
-59 l4 -60 -29 3 -28 3 0 184 c0 183 0 184 -22 187 l-23 3 0 -215 c0 -152 -3
-216 -11 -216 -7 0 -10 13 -7 34 2 19 0 32 -4 30 -4 -3 -9 13 -9 35 -1 23 -2
47 -3 54 -1 6 1 33 5 60 4 35 2 47 -8 47 -10 0 -13 55 -13 280 0 158 -4 280
-9 280 -15 0 -17 -20 -20 -155 -6 -341 -9 -520 -10 -524 -1 -2 -7 2 -15 8 -20
17 -22 -19 -21 -465 1 -371 0 -392 -17 -391 -19 1 -25 32 -8 42 7 4 8 11 2 18
-15 18 -14 755 0 791 10 24 9 30 -5 38 -9 5 -17 17 -17 26 0 15 -2 15 -10 2
-5 -8 -10 -48 -10 -88 0 -46 -4 -71 -10 -67 -6 3 -10 52 -10 111 0 91 -3 107
-20 124 -11 11 -20 28 -21 38 0 14 -2 14 -8 -3 -5 -11 -7 -30 -4 -43 5 -31
-22 -39 -50 -16 l-22 19 23 -26 c31 -35 28 -56 -4 -22 -14 15 -23 22 -19 16 3
-7 1 -13 -5 -13 -6 0 -8 -5 -4 -11 4 -8 0 -8 -15 0 -11 7 -21 17 -21 23 0 6 6
6 18 -3 9 -7 14 -10 10 -5 -4 4 -3 19 2 32 5 13 6 23 2 23 -25 -4 -34 2 -23
15 8 10 9 16 1 21 -15 9 -13 28 3 19 6 -4 4 2 -7 14 -10 12 -23 19 -27 16 -5
-3 -6 2 -3 11 5 13 9 13 23 3 11 -9 10 -6 -3 9 -10 13 -24 19 -30 16 -22 -14
-36 -11 -36 8 0 10 -4 19 -10 19 -5 0 -10 15 -10 33 0 18 -5 38 -12 45 -7 7
-8 12 -4 12 5 0 3 6 -3 14 -6 8 -11 18 -10 22 1 5 1 33 0 62 -1 49 -3 52 -26
52 l-25 0 -1 -105 c-2 -131 -1 -127 -16 -132 -10 -4 -13 46 -13 227 0 178 -3
231 -12 228 -20 -7 -24 -44 -21 -224 1 -94 -2 -184 -7 -200 -7 -24 -8 -19 -9
32 -1 82 -11 124 -27 124 -11 0 -14 -32 -14 -167 0 -93 -5 -175 -10 -183 -5
-8 -10 -10 -10 -5 -1 39 -22 129 -34 146 -14 21 -15 21 -21 -15 -4 -20 -5 -43
-1 -51 3 -8 1 -15 -4 -15 -5 0 -10 35 -12 78 -2 54 -7 76 -15 75 -7 -2 -10 4
-7 12 4 8 11 12 17 8 5 -3 7 -1 4 5 -4 5 -15 9 -25 7 -9 -2 -20 -4 -24 -4 -4
-1 -5 -16 -3 -33 4 -23 1 -19 -10 15 -16 47 -45 66 -45 28 0 -11 -4 -23 -10
-26 -6 -4 -10 -56 -10 -123 0 -64 -5 -124 -10 -132 -13 -21 -18 369 -5 391 4
5 1 8 -7 7 -8 -2 -12 5 -10 20 2 12 -1 22 -5 22 -10 0 -10 2 -14 -167 -2 -92
-6 -130 -14 -122 -5 5 -11 50 -12 99 0 49 -4 93 -7 99 -4 6 -7 134 -6 286 0
226 -2 275 -13 275 -19 0 -27 -123 -27 -397 0 -174 -3 -213 -14 -213 -21 0
-26 48 -26 271 l0 209 -28 0 -28 0 4 -60 c3 -40 1 -60 -7 -60 -12 0 -12 0 -13
260 0 102 3 209 7 239 4 31 3 51 -2 48 -5 -3 -9 3 -9 14 0 10 4 19 9 19 5 0 1
7 -7 16 -13 13 -22 64 -17 97 0 4 -3 7 -8 7 -5 0 -13 -15 -17 -32z m-120 -945
c4 -9 2 -21 -4 -27 -7 -7 -10 -7 -10 1 0 6 -3 18 -6 27 -3 9 -2 16 4 16 5 0
13 -8 16 -17z m-553 -27 c14 8 11 -2 -4 -14 -10 -8 -13 -6 -14 11 0 12 1 16 4
9 3 -6 9 -10 14 -6z m529 -6 c0 -5 -4 -10 -10 -10 -5 0 -10 5 -10 10 0 6 5 10
10 10 6 0 10 -4 10 -10z m-10 -30 c0 -5 -5 -10 -11 -10 -5 0 -7 5 -4 10 3 6 8
10 11 10 2 0 4 -4 4 -10z m-480 -30 c0 -5 -2 -10 -4 -10 -3 0 -8 5 -11 10 -3
6 -1 10 4 10 6 0 11 -4 11 -10z m790 -60 c0 -33 -4 -60 -10 -60 -6 0 -10 27
-10 60 0 33 4 60 10 60 6 0 10 -27 10 -60z m-797 16 c-3 -4 -9 -2 -14 5 -7 11
-9 11 -9 1 0 -7 -4 -10 -10 -7 -6 4 -5 11 2 19 13 14 40 -2 31 -18z m287 8 c0
-14 -3 -14 -15 -4 -8 7 -15 14 -15 16 0 2 7 4 15 4 8 0 15 -7 15 -16z m198
-19 c-3 -3 -9 2 -12 12 -6 14 -5 15 5 6 7 -7 10 -15 7 -18z m-480 -60 c15 -22
12 -40 -3 -21 -8 11 -15 23 -15 27 0 4 -8 6 -17 5 -14 -3 -18 3 -19 27 l-1 31
24 -30 c13 -16 27 -34 31 -39z m289 3 c-3 -8 -6 -5 -6 6 -1 11 2 17 5 13 3 -3
4 -12 1 -19z m1060 -110 c-2 -24 -4 -7 -4 37 0 44 2 63 4 43 2 -21 2 -57 0
-80z m-1389 81 c-10 -7 -10 -9 0 -9 6 0 12 -5 12 -12 0 -9 -3 -9 -12 0 -18 18
-19 42 -1 35 12 -5 12 -7 1 -14z m312 -9 c0 -5 -2 -10 -4 -10 -3 0 -8 5 -11
10 -3 6 -1 10 4 10 6 0 11 -4 11 -10z m67 -62 c-2 -13 -4 -3 -4 22 0 25 2 35
4 23 2 -13 2 -33 0 -45z m371 37 c-3 -3 -9 2 -12 12 -6 14 -5 15 5 6 7 -7 10
-15 7 -18z m-1368 11 c0 -3 -4 -8 -10 -11 -5 -3 -10 -1 -10 4 0 6 5 11 10 11
6 0 10 -2 10 -4z m667 -2 c-3 -3 -12 -4 -19 -1 -8 3 -5 6 6 6 11 1 17 -2 13
-5z m1383 -4 c0 -5 8 -11 18 -11 9 -1 4 -4 -13 -8 -36 -9 -39 -7 -32 14 7 17
27 21 27 5z m-1395 -20 c3 -6 -1 -7 -9 -4 -18 7 -21 14 -7 14 6 0 13 -4 16
-10z m-660 -48 c-6 -16 -7 -16 -17 1 -5 10 -7 26 -3 35 6 16 7 16 17 -1 5 -10
7 -26 3 -35z m916 31 c13 -16 12 -17 -3 -4 -10 7 -18 15 -18 17 0 8 8 3 21
-13z m29 7 c0 -5 -2 -10 -4 -10 -3 0 -8 5 -11 10 -3 6 -1 10 4 10 6 0 11 -4
11 -10z m-430 -10 c0 -5 -5 -10 -11 -10 -5 0 -7 5 -4 10 3 6 8 10 11 10 2 0 4
-4 4 -10z m855 0 c3 -5 3 -15 0 -20 -4 -6 -6 -91 -6 -188 1 -109 -3 -183 -9
-192 -8 -12 -10 -7 -8 20 1 19 -1 40 -4 45 -8 14 -9 272 -2 313 6 32 17 41 29
22z m593 -350 c-2 -198 0 -360 5 -360 4 0 7 104 7 231 0 220 6 269 30 269 6 0
10 -65 10 -164 0 -159 1 -164 20 -159 19 5 20 0 20 -153 0 -86 2 -155 5 -152
3 3 6 56 6 118 1 114 7 152 24 151 6 0 13 -15 16 -33 4 -21 6 -8 6 39 1 80 5
93 34 93 19 0 19 -7 19 -191 -1 -105 2 -194 5 -197 4 -4 6 7 5 23 -1 17 -2 81
-1 143 1 106 2 113 20 107 22 -7 33 23 24 66 -7 37 4 79 21 79 19 0 23 -78 22
-420 -1 -278 -1 -285 -21 -285 -18 0 -21 9 -26 80 -3 44 -6 72 -7 63 -1 -10
-9 -18 -17 -18 -11 0 -15 18 -18 78 l-3 77 -3 -95 c-5 -150 -4 -145 -28 -148
-17 -3 -24 3 -29 22 -3 14 -4 32 -1 40 4 9 -2 17 -14 21 -29 9 -23 26 7 19 25
-6 25 -6 23 45 -2 28 -5 48 -8 45 -3 -3 -4 -21 -2 -40 2 -32 0 -35 -20 -32
-20 3 -23 9 -26 68 -6 109 -15 81 -11 -38 3 -101 1 -112 -14 -112 -14 0 -18 9
-20 38 -1 20 -4 -43 -7 -140 -6 -167 -11 -201 -28 -184 -5 4 -10 110 -13 234
l-6 227 -2 -327 -2 -328 -22 0 -23 0 1 227 0 228 -5 -180 c-6 -180 -6 -180
-30 -183 l-23 -4 2 114 c5 180 -2 242 -10 98 -7 -115 -14 -138 -37 -128 -5 2
-7 75 -7 163 1 88 0 141 -3 118 -5 -53 -33 -61 -33 -10 0 17 -2 152 -4 300 -4
253 -3 267 14 267 12 0 20 -9 24 -27 2 -16 3 59 2 165 -3 183 -2 192 16 192
10 0 20 -6 23 -12 2 -7 6 -152 8 -321 2 -169 7 -310 10 -313 3 -4 3 165 0 373
-4 234 -2 382 4 386 5 3 15 2 23 -3 13 -8 16 -71 18 -397 2 -213 5 -390 8
-392 2 -2 4 199 4 447 0 449 0 452 21 452 20 0 20 -2 17 -360z m-238 325 c0
-8 -2 -15 -4 -15 -2 0 -6 7 -10 15 -3 8 -1 15 4 15 6 0 10 -7 10 -15z m-1277
-46 c-7 -24 -26 -11 -28 20 -1 16 2 18 16 11 11 -7 15 -17 12 -31z m477 37 c0
-11 -19 -15 -25 -6 -3 5 1 10 9 10 9 0 16 -2 16 -4z m247 -48 c-2 -13 -4 -5
-4 17 -1 22 1 32 4 23 2 -10 2 -28 0 -40z m353 -269 c-1 -177 1 -324 4 -327 4
-3 6 54 6 126 0 125 1 132 20 132 19 0 20 -7 19 -116 0 -64 2 -119 5 -122 3
-3 6 5 6 17 0 14 5 21 13 19 9 -4 13 -56 15 -206 2 -172 0 -202 -12 -202 -9 0
-16 13 -19 33 -2 17 -5 -8 -6 -58 -1 -49 -6 -98 -10 -108 -13 -35 -30 5 -34
83 -1 41 -4 -43 -5 -187 -2 -256 -3 -263 -22 -263 -19 0 -20 7 -21 228 -1 125
0 242 1 260 1 17 -3 32 -8 32 -5 0 -9 -16 -10 -35 -1 -19 -7 -45 -13 -57 -12
-22 -12 -22 -20 -3 -10 25 -11 269 -2 448 4 99 10 137 19 141 8 3 13 2 13 -2
-6 -35 3 -452 9 -452 4 0 8 73 7 163 0 89 1 300 3 470 2 301 2 307 22 307 20
0 20 -5 20 -321z m-1520 261 c0 -4 -6 -10 -14 -13 -10 -4 -12 0 -9 14 5 18 23
18 23 -1z m390 5 c0 -8 -4 -15 -8 -15 -5 0 -9 7 -9 15 0 8 4 15 9 15 4 0 8 -7
8 -15z m427 -7 c-3 -8 -6 -5 -6 6 -1 11 2 17 5 13 3 -3 4 -12 1 -19z m1415
-20 c-6 -6 -7 0 -4 19 5 21 7 23 10 9 2 -10 0 -22 -6 -28z m-1803 13 c14 -8
16 -22 15 -78 -3 -84 -2 -81 -13 -64 -5 8 -8 41 -6 73 3 46 1 60 -13 68 -21
12 -7 13 17 1z m458 -23 c-3 -8 -6 -5 -6 6 -1 11 2 17 5 13 3 -3 4 -12 1 -19z
m159 -2 c1 -7 -5 -13 -12 -13 -15 0 -19 19 -7 30 8 8 16 1 19 -17z m1119 -2
c9 -15 18 -32 19 -38 1 -6 5 -17 9 -23 6 -9 1 -13 -14 -13 -17 0 -20 -4 -16
-21 4 -16 3 -19 -5 -11 -14 14 -20 44 -7 36 5 -3 9 0 9 6 0 6 -7 13 -15 16 -8
4 -12 10 -9 16 4 5 11 5 18 -1 9 -8 13 -7 13 4 0 7 -5 13 -11 12 -6 -1 -12 8
-14 21 -4 29 2 28 23 -4z m45 16 c0 -5 -5 -10 -11 -10 -5 0 -7 5 -4 10 3 6 8
10 11 10 2 0 4 -4 4 -10z m-2223 -42 c-3 -7 -5 -2 -5 12 0 14 2 19 5 13 2 -7
2 -19 0 -25z m1676 -611 c2 -350 0 -637 -4 -637 -4 0 -15 -3 -23 -6 -15 -6
-16 51 -15 634 2 582 3 641 18 645 9 2 17 3 18 2 1 -1 4 -288 6 -638z m-1100
603 c-3 -11 -9 -20 -13 -20 -5 0 -6 9 -3 20 3 11 9 20 13 20 5 0 6 -9 3 -20z
m324 -12 c-3 -7 -5 -2 -5 12 0 14 2 19 5 13 2 -7 2 -19 0 -25z m1350 -1 c2
-17 1 -19 -7 -7 -11 17 -14 47 -3 36 4 -3 8 -17 10 -29z m-2672 13 c-3 -6 1
-7 9 -4 10 4 16 1 17 -7 0 -8 4 -5 9 6 5 13 8 -15 8 -77 -1 -60 -4 -95 -10
-92 -6 4 -7 0 -1 -12 12 -24 11 -54 -2 -74 -5 -8 -10 -21 -10 -29 0 -8 -6 -16
-14 -19 -8 -3 -11 0 -7 6 3 6 2 13 -3 16 -13 9 -11 154 3 169 24 27 14 34 -24
16 -21 -10 -45 -16 -53 -13 -13 5 -13 9 -1 34 16 32 46 50 38 22 -4 -12 -2
-11 7 3 7 11 14 25 15 30 0 6 2 16 2 23 1 6 7 12 13 12 5 0 7 -4 4 -10z m1116
-277 c1 -159 1 -314 1 -345 0 -33 4 -58 10 -58 7 0 8 86 3 260 -7 237 -6 260
9 266 9 4 20 4 23 0 8 -8 12 -516 4 -581 -7 -61 -25 -62 -29 0 -2 25 -7 45
-12 45 -5 0 -9 -109 -9 -242 0 -134 0 -269 -1 -300 0 -51 -2 -58 -20 -58 -19
0 -19 10 -20 634 0 349 3 642 6 650 3 9 12 16 20 16 12 0 14 -49 15 -287z
m1439 283 c0 -3 -4 -8 -10 -11 -5 -3 -10 -1 -10 4 0 6 5 11 10 11 6 0 10 -2
10 -4z m7 -42 c-3 -3 -12 -4 -19 -1 -8 3 -5 6 6 6 11 1 17 -2 13 -5z m563 -14
c0 -5 -2 -10 -4 -10 -3 0 -8 5 -11 10 -3 6 -1 10 4 10 6 0 11 -4 11 -10z
m-2552 -52 c-4 -77 4 -307 9 -280 3 14 12 22 24 22 17 0 19 -8 21 -87 1 -68 3
-75 5 -30 3 49 7 57 23 57 17 0 20 -8 22 -57 1 -37 3 -46 5 -25 3 25 9 32 21
30 15 -3 17 -22 16 -178 0 -150 -2 -175 -16 -178 -13 -3 -17 19 -26 135 l-10
138 4 -172 c4 -147 2 -173 -10 -173 -8 0 -18 4 -21 10 -3 5 -9 76 -12 157 -3
82 -8 150 -10 153 -3 3 -3 -76 -2 -175 2 -175 2 -180 -18 -179 -19 0 -20 -8
-26 -135 -4 -77 -11 -137 -16 -139 -6 -2 -14 -4 -18 -5 -4 -1 -7 106 -6 238 0
174 -1 212 -6 138 -4 -57 -10 -106 -14 -110 -17 -16 -26 18 -29 113 -2 56 -6
100 -10 98 -4 -3 -4 -81 -1 -174 l6 -170 -24 0 -24 0 0 458 c0 450 0 457 20
457 20 0 20 -5 16 -270 -2 -148 -1 -267 3 -264 3 3 6 70 7 150 0 79 3 154 6
167 8 33 31 27 37 -10 3 -18 7 -44 10 -58 2 -14 4 45 4 130 -1 271 -1 270 22
270 18 0 20 -6 18 -52z m742 48 c0 -11 -19 -15 -25 -6 -3 5 1 10 9 10 9 0 16
-2 16 -4z m842 -161 c-1 -77 -5 -194 -7 -260 -4 -82 -2 -113 5 -97 22 52 40
14 40 -88 0 -41 -4 -60 -9 -51 -5 7 -14 11 -19 7 -7 -4 -13 12 -15 46 -6 71 2
-235 10 -389 l6 -123 -26 0 c-26 0 -26 1 -25 78 0 42 0 248 -1 457 -3 443 3
568 28 563 14 -3 16 -21 13 -143z m1138 135 c0 -5 -4 -10 -10 -10 -5 0 -10 5
-10 10 0 6 5 10 10 10 6 0 10 -4 10 -10z m-805 -19 c3 -5 0 -13 -6 -17 -7 -4
-9 -3 -5 4 3 5 0 13 -6 15 -9 4 -10 6 -1 6 6 1 14 -3 18 -8z m-645 -16 c0 -8
-4 -15 -10 -15 -5 0 -10 7 -10 15 0 8 5 15 10 15 6 0 10 -7 10 -15z m1450 5
c0 -5 -4 -10 -10 -10 -5 0 -10 5 -10 10 0 6 5 10 10 10 6 0 10 -4 10 -10z
m-1768 -282 c1 -145 1 -287 1 -315 0 -29 3 -53 8 -53 4 0 6 93 3 207 -3 114
-3 218 1 230 6 26 30 31 39 7 8 -21 8 -477 -1 -582 -5 -65 -9 -82 -21 -80 -11
2 -15 22 -16 80 -4 147 -16 91 -16 -75 0 -160 -1 -167 -20 -167 -20 0 -20 7
-20 498 0 275 3 502 7 505 3 4 12 7 20 7 10 0 13 -51 15 -262z m1306 42 c1
-111 6 -209 11 -218 6 -10 7 0 4 30 -3 26 -2 103 2 172 5 97 10 126 21 126 11
0 14 -51 16 -277 4 -378 -2 -528 -22 -528 -13 0 -15 25 -17 159 -3 167 -13
230 -13 85 -2 -205 -7 -255 -27 -235 -10 9 -17 849 -8 884 4 18 9 21 18 13 10
-7 14 -64 15 -211z m460 184 c2 -16 -1 -23 -8 -19 -5 3 -10 18 -10 32 0 32 13
22 18 -13z m-581 -6 c-3 -7 -5 -2 -5 12 0 14 2 19 5 13 2 -7 2 -19 0 -25z
m293 -6 c0 -35 -11 -73 -19 -68 -3 2 -4 27 -3 55 4 52 22 63 22 13z m-1693 6
c-3 -8 -6 -5 -6 6 -1 11 2 17 5 13 3 -3 4 -12 1 -19z m-1357 -3 c0 -9 -6 -12
-15 -9 -8 4 -15 1 -15 -5 0 -6 -7 -11 -15 -11 -8 0 -15 8 -15 18 0 12 9 18 30
19 20 2 30 -2 30 -12z m2589 -68 c-1 -63 -15 -154 -18 -119 0 7 -5 10 -11 7
-5 -3 -10 1 -10 10 0 10 5 13 13 9 8 -6 8 -3 -1 9 -10 12 -12 34 -7 84 8 75
12 86 26 78 5 -4 8 -39 8 -78z m808 36 c-3 -10 -5 -2 -5 17 0 19 2 27 5 18 2
-10 2 -26 0 -35z m-2140 20 c4 -10 7 -222 5 -470 -2 -391 -5 -453 -17 -453
-13 0 -15 63 -15 470 0 446 4 505 27 453z m-427 -23 c0 -5 -4 -10 -10 -10 -5
0 -10 5 -10 10 0 6 5 10 10 10 6 0 10 -4 10 -10z m2510 -10 c0 -11 -4 -20 -10
-20 -5 0 -10 9 -10 20 0 11 5 20 10 20 6 0 10 -9 10 -20z m-3342 -35 c1 -19
-3 -35 -8 -35 -5 0 -7 -13 -5 -29 2 -18 -2 -34 -12 -42 -14 -12 -15 -7 -10 43
5 47 3 57 -11 63 -14 5 -14 7 -2 15 8 6 11 10 5 10 -5 0 -4 4 4 9 23 15 38 2
39 -34z m1789 23 c-3 -8 -6 -5 -6 6 -1 11 2 17 5 13 3 -3 4 -12 1 -19z m-679
-411 c2 -395 1 -418 -15 -415 -11 2 -19 13 -20 28 -3 49 -4 230 -4 518 1 274
2 293 19 290 16 -3 17 -32 20 -421z m643 389 c5 3 9 -4 9 -15 0 -12 -4 -21 -9
-21 -10 0 -21 25 -20 43 0 8 2 8 6 -1 2 -6 9 -10 14 -6z m-26 -188 c5 -137 2
-545 -4 -565 -1 -2 -8 -3 -16 -3 -13 0 -15 48 -15 368 0 203 3 372 7 375 17
18 21 -6 28 -175z m-1395 145 c0 -13 -10 -14 -62 -8 -35 4 -73 6 -85 6 -42 -1
-24 18 20 21 75 5 127 -3 127 -19z m-399 -56 c-10 -9 -11 -8 -6 8 5 15 2 13
-10 -5 -16 -25 -16 -25 -10 15 10 57 18 65 29 27 6 -23 6 -36 -3 -45z m1589
-287 c0 -343 0 -350 -20 -350 -20 0 -20 7 -20 350 0 343 0 350 20 350 20 0 20
-7 20 -350z m750 315 c0 -14 -4 -25 -10 -25 -5 0 -10 11 -10 25 0 14 5 25 10
25 6 0 10 -11 10 -25z m-1816 -1 c3 -9 6 -162 6 -340 0 -317 0 -324 -20 -324
-20 0 -20 7 -20 340 0 284 2 340 14 340 8 0 17 -7 20 -16z m2836 -146 c0 -90
2 -238 5 -330 3 -157 2 -168 -15 -168 -24 0 -25 13 -29 364 -3 295 -3 296 18
296 20 0 21 -4 21 -162z m-2231 -113 c0 -135 -5 -243 -9 -240 -5 3 -5 -6 -1
-21 9 -34 1 -106 -11 -102 -6 2 -12 117 -14 297 -2 161 -7 297 -10 302 -3 5 7
9 21 9 l26 0 -2 -245z m-55 173 c9 -86 5 -524 -6 -540 -5 -10 -8 -8 -8 5 0 10
-4 15 -10 12 -18 -11 -11 53 8 65 16 11 16 11 0 6 -21 -6 -25 23 -7 56 6 12 7
18 1 14 -7 -4 -10 72 -11 219 -2 189 0 225 12 225 11 0 17 -18 21 -62z m-695
38 c10 -12 -2 -14 -85 -15 -99 -1 -127 5 -103 20 24 15 175 11 188 -5z m1159
-273 c-3 -248 -5 -288 -18 -288 -9 0 -16 11 -18 31 -3 27 -6 30 -28 26 l-24
-4 0 231 c0 224 1 231 20 231 19 0 20 -7 21 -202 0 -112 3 -211 7 -220 4 -10
6 95 4 232 -3 248 -3 250 17 250 21 0 21 -2 19 -287z m2132 260 c0 -19 -13 -9
-16 12 -1 8 2 13 7 9 5 -3 9 -12 9 -21z m-3500 1 c0 -14 -3 -14 -15 -4 -8 7
-15 14 -15 16 0 2 7 4 15 4 8 0 15 -7 15 -16z m2950 -88 c0 -52 -4 -97 -9
-100 -11 -7 -10 -159 2 -167 11 -8 17 -153 7 -169 -5 -7 -16 -9 -30 -5 -16 5
-19 10 -11 18 6 6 11 36 11 67 0 31 5 61 11 67 8 8 4 16 -15 28 -24 16 -26 23
-26 91 0 51 4 76 13 79 8 4 12 30 12 83 0 90 2 102 21 102 11 0 14 -20 14 -94z
m-2950 -80 c0 -77 3 -136 7 -133 6 7 8 33 12 185 1 45 4 52 21 52 19 0 20 -7
20 -200 0 -191 -1 -200 -19 -200 -20 0 -24 14 -34 120 -2 19 -5 3 -5 -36 -2
-51 -6 -73 -16 -77 -12 -5 -30 24 -27 44 0 4 1 97 1 208 1 195 2 200 21 188
17 -11 19 -24 19 -151z m3240 -61 c0 -193 -2 -225 -15 -225 -8 0 -15 1 -16 3
0 1 -3 102 -6 225 -5 220 -5 222 16 222 21 0 21 -3 21 -225z m150 209 c0 -8
-4 -12 -10 -9 -5 3 -10 10 -10 16 0 5 5 9 10 9 6 0 10 -7 10 -16z m-3509 -17
c-10 -9 -11 -8 -5 6 3 10 9 15 12 12 3 -3 0 -11 -7 -18z m1687 -220 c2 -206 0
-237 -13 -237 -13 0 -15 32 -15 241 0 188 3 240 13 237 9 -4 13 -63 15 -241z
m-1258 -12 c0 -228 -1 -235 -20 -235 -19 0 -20 7 -20 235 0 228 1 235 20 235
19 0 20 -7 20 -235z m901 149 c3 -43 4 -99 3 -124 -2 -25 -3 -83 -4 -130 0
-59 -3 -80 -10 -70 -5 8 -10 10 -10 4 0 -6 3 -14 7 -18 10 -10 12 -36 3 -36
-12 0 -21 32 -20 72 1 18 -2 106 -6 195 -7 165 -4 198 19 191 7 -3 14 -34 18
-84z m-1382 60 c4 3 8 -1 8 -9 0 -8 -6 -15 -14 -15 -7 0 -13 10 -12 23 0 12 3
16 6 9 2 -6 8 -10 12 -8z m1845 -66 c4 -40 8 -91 9 -113 3 -26 4 -18 5 23 2
76 24 85 41 18 17 -67 14 -137 -8 -179 -20 -39 -30 -33 -32 21 -1 15 -7 -9
-14 -53 -7 -44 -10 -87 -7 -95 5 -12 3 -13 -10 -3 -12 11 -15 48 -17 223 -1
115 0 214 4 220 15 24 24 5 29 -62z m-817 -136 c1 -173 1 -182 -18 -182 -18 0
-19 9 -19 186 0 171 1 185 18 182 15 -3 17 -21 19 -186z m924 126 c0 -35 3
-117 5 -183 5 -132 1 -165 -21 -165 -13 0 -15 30 -15 198 0 109 3 202 7 205
17 17 23 2 24 -55z m1097 -123 c-3 -124 -5 -140 -20 -143 -17 -3 -18 9 -18
151 0 84 3 157 7 161 4 4 13 -1 20 -11 10 -13 13 -55 11 -158z m262 16 c0
-166 -3 -191 -26 -191 -10 0 -13 36 -13 175 -1 168 0 175 19 175 19 0 20 -7
20 -159z m150 -22 c-1 -163 -3 -180 -18 -177 -15 3 -17 24 -20 181 -2 173 -2
177 18 177 20 0 21 -5 20 -181z m-3490 149 c0 -19 -2 -20 -10 -8 -13 19 -13
30 0 30 6 0 10 -10 10 -22z m1464 0 c7 -29 6 -244 -3 -282 -12 -55 -26 -38
-28 31 -1 38 -2 97 -3 133 -3 118 -1 140 14 140 7 0 16 -10 20 -22z m-1314
-144 c0 -101 -3 -153 -10 -149 -5 3 -10 1 -10 -5 0 -6 -4 -8 -10 -5 -6 4 -10
68 -10 161 0 147 1 154 20 154 19 0 20 -7 20 -156z m771 80 c3 -32 6 -51 7
-41 4 40 27 8 30 -41 2 -41 0 -52 -12 -52 -8 0 -17 8 -19 18 -3 9 -5 -9 -6
-41 -1 -37 -6 -64 -16 -73 -8 -9 -15 -14 -16 -12 -5 17 -10 282 -5 294 12 32
31 6 37 -52z m-461 -78 c0 -103 -3 -136 -14 -145 -8 -7 -16 -8 -19 -4 -3 5 -6
70 -6 146 -1 131 -1 137 19 137 19 0 20 -6 20 -134z m2824 108 c3 -9 6 -61 6
-117 0 -96 -2 -103 -23 -112 l-22 -11 2 116 c1 63 2 121 3 128 0 17 27 15 34
-4z m-2983 -46 c1 -29 1 -56 0 -60 0 -5 4 -8 9 -8 6 0 10 9 10 21 0 14 5 19
18 17 13 -2 18 -15 20 -56 3 -47 1 -52 -17 -52 -19 0 -27 20 -22 53 0 4 -4 7
-9 7 -6 0 -9 -24 -8 -57 3 -48 0 -58 -14 -61 -16 -3 -18 8 -18 122 0 105 2
126 15 126 11 0 15 -13 16 -52z m709 -54 c0 -76 -2 -85 -17 -82 -15 3 -19 16
-21 77 -3 71 4 90 31 91 4 0 7 -39 7 -86z m2575 67 c-3 -5 -1 -12 5 -16 5 -3
10 -44 10 -91 0 -76 -2 -85 -17 -82 -15 3 -19 16 -21 78 -3 82 3 120 19 120 6
0 8 -4 4 -9z m115 -91 c0 -71 -3 -89 -16 -94 -24 -9 -24 -9 -24 29 0 19 -4 35
-10 35 -5 0 -10 -4 -10 -10 0 -5 -7 -10 -15 -10 -12 0 -15 13 -15 55 0 71 23
76 33 8 7 -46 17 -34 17 19 0 59 4 70 26 61 11 -4 14 -27 14 -93z m-826 74 c9
-25 7 -83 -4 -105 -20 -36 -30 -19 -30 51 0 53 3 70 14 70 8 0 17 -7 20 -16z
m359 -1 c3 -10 6 -46 6 -80 1 -48 -2 -63 -13 -63 -7 0 -17 7 -20 16 -8 21 -8
129 1 137 11 12 21 8 26 -10z m-3133 -63 c0 -63 -2 -70 -20 -70 -18 0 -20 7
-20 70 0 63 2 70 20 70 18 0 20 -7 20 -70z m310 5 c0 -37 -4 -55 -12 -55 -10
0 -9 -3 1 -9 9 -6 10 -11 2 -15 -22 -14 -31 6 -31 70 0 57 2 64 20 64 18 0 20
-7 20 -55z m2776 -38 c-1 -12 -10 -23 -18 -25 -24 -5 -32 89 -10 106 15 11 18
9 24 -23 4 -19 6 -46 4 -58z m358 71 c14 -55 1 -98 -31 -98 -18 0 -18 106 0
113 21 9 25 8 31 -15z m-3494 -43 c0 -33 -4 -45 -15 -45 -16 0 -17 5 -19 57
-1 25 3 33 17 33 14 0 17 -9 17 -45z m2821 -83 c-7 -2 -18 1 -23 6 -8 8 -4 9
13 5 13 -4 18 -8 10 -11z m-2831 -12 c0 -5 -4 -10 -10 -10 -5 0 -10 5 -10 10
0 6 5 10 10 10 6 0 10 -4 10 -10z m1271 -59 c5 -63 6 -274 2 -290 -8 -31 -30
-25 -37 10 -10 52 -7 167 5 175 8 4 7 9 -2 15 -9 6 -10 12 -4 17 15 11 18 55
3 46 -8 -5 -9 -2 -5 10 4 10 7 21 7 25 0 15 30 7 31 -8z m1759 -5 c0 -2 -3
-11 -6 -20 -9 -23 -24 -20 -24 4 0 11 7 20 15 20 8 0 15 -2 15 -4z m366 -62
c-3 -9 -6 -27 -6 -41 0 -39 -14 -18 -16 23 0 23 4 34 14 34 9 0 12 -6 8 -16z
m-3026 -54 c0 -5 -4 -10 -10 -10 -5 0 -10 5 -10 10 0 6 5 10 10 10 6 0 10 -4
10 -10z m2268 -17 c14 -28 22 -92 11 -98 -5 -4 -9 -12 -9 -18 0 -7 4 -6 11 3
8 11 9 6 5 -20 -4 -19 -11 -37 -17 -38 -6 -3 -5 -10 3 -20 11 -13 11 -14 0 -8
-10 6 -13 2 -10 -20 2 -16 -2 -28 -10 -30 -7 -1 -9 -1 -4 2 4 2 6 23 5 47 -8
107 -8 217 -1 217 4 0 11 -8 16 -17z m238 -28 c-1 -19 1 -35 5 -35 7 0 10
-201 2 -213 -3 -4 -11 -3 -19 4 -20 17 -21 279 0 279 10 0 13 -11 12 -35z
m649 15 c4 -6 11 -8 16 -5 5 4 9 1 9 -4 0 -6 -13 -11 -30 -11 -20 0 -30 5 -30
15 0 17 25 20 35 5z m95 -11 c0 -5 -4 -9 -10 -9 -5 0 -10 7 -10 16 0 8 5 12
10 9 6 -3 10 -10 10 -16z m-543 -21 c-3 -7 -5 -2 -5 12 0 14 2 19 5 13 2 -7 2
-19 0 -25z m-2932 2 c3 -5 1 -10 -4 -10 -6 0 -11 5 -11 10 0 6 2 10 4 10 3 0
8 -4 11 -10z m243 -11 c-2 -6 -7 -10 -11 -10 -4 1 -16 1 -27 1 -11 0 -20 5
-20 10 0 6 14 10 31 10 17 0 29 -5 27 -11z m1430 -44 c-2 -10 -8 -12 -17 -6
-12 8 -12 11 0 24 15 16 23 8 17 -18z m-1708 10 c0 -8 -2 -15 -4 -15 -2 0 -6
7 -10 15 -3 8 -1 15 4 15 6 0 10 -7 10 -15z m874 -42 c-7 -39 -14 -42 -14 -5
0 18 4 32 9 32 5 0 7 -12 5 -27z m916 -83 c0 -82 -3 -100 -15 -100 -12 0 -14
9 -11 43 3 23 5 68 5 100 1 31 6 57 11 57 6 0 10 -40 10 -100z m1026 73 c-10
-10 -19 5 -10 18 6 11 8 11 12 0 2 -7 1 -15 -2 -18z m173 -10 c-1 -37 -1 -37
-8 -8 -7 28 -5 45 5 45 2 0 3 -17 3 -37z m-1674 18 c3 -5 1 -12 -5 -16 -5 -3
-10 1 -10 9 0 18 6 21 15 7z m-1084 -52 c-9 -23 -10 -22 -10 11 -1 23 2 31 9
24 7 -7 7 -19 1 -35z m1076 -11 c-3 -7 -5 -2 -5 12 0 14 2 19 5 13 2 -7 2 -19
0 -25z m1509 7 c0 -19 -3 -22 -13 -13 -7 6 -13 17 -13 24 0 8 6 14 13 14 7 0
13 -11 13 -25z m-2717 -47 c0 -29 -3 -47 -6 -40 -2 6 -10 9 -16 6 -8 -5 -8 -2
1 7 6 7 12 28 12 46 0 18 2 33 5 33 3 0 5 -24 4 -52z m2401 37 c0 -8 -4 -15
-10 -15 -5 0 -10 7 -10 15 0 8 5 15 10 15 6 0 10 -7 10 -15z m-1774 -21 c-4
-9 -9 -15 -11 -12 -3 3 -3 13 1 22 4 9 9 15 11 12 3 -3 3 -13 -1 -22z m1128
18 c2 -4 -4 -8 -15 -8 -10 0 -19 4 -19 8 0 4 6 8 14 8 8 0 17 -4 20 -8z m1121
-50 c-8 -8 -25 10 -25 27 0 30 14 34 22 5 4 -16 6 -30 3 -32z m-2105 -7 c0
-30 -4 -55 -8 -55 -5 0 -8 12 -6 28 1 15 2 39 3 55 2 50 11 28 11 -28z m1845
-4 c2 -28 -1 -51 -6 -51 -5 0 -9 26 -9 57 0 68 10 65 15 -6z m-2711 19 c-6 23
-6 23 11 7 21 -21 17 -26 -21 -33 -22 -4 -26 -2 -17 7 6 6 9 19 7 28 -3 9 2 5
11 -9 l16 -25 -7 25z m1479 -6 c-4 -10 -9 -12 -15 -6 -12 12 -1 35 12 27 5 -3
6 -13 3 -21z m-188 -124 c1 -84 -3 -131 -10 -134 -16 -6 -49 21 -36 29 20 12
32 43 19 51 -7 5 -8 3 -3 -7 7 -12 6 -12 -7 -1 -14 11 -17 10 -21 -5 -4 -14
-5 -12 -6 6 -1 17 3 22 14 17 8 -3 15 -1 15 5 0 6 4 8 9 5 4 -3 8 7 9 22 1
109 3 142 10 142 4 0 7 -58 7 -130z m1597 105 c-2 -14 -8 -25 -13 -25 -10 0
-11 12 -3 34 10 25 22 19 16 -9z m-225 -32 c-3 -10 -5 -4 -5 12 0 17 2 24 5
18 2 -7 2 -21 0 -30z m-2612 17 c-3 -5 -1 -10 6 -10 7 0 10 -3 6 -6 -9 -9 -28
6 -22 17 4 5 8 9 11 9 3 0 2 -4 -1 -10z m2498 3 c-7 -2 -19 -2 -25 0 -7 3 -2
5 12 5 14 0 19 -2 13 -5z m-2515 -59 c-3 -27 -4 -26 -9 8 -3 22 -1 34 4 29 5
-5 7 -21 5 -37z m465 9 c4 -37 -6 -63 -24 -63 -10 0 -12 44 -3 78 9 33 21 27
27 -15z m474 15 c-3 -8 -6 -5 -6 6 -1 11 2 17 5 13 3 -3 4 -12 1 -19z m346 -8
c3 -11 1 -20 -4 -20 -5 0 -9 9 -9 20 0 11 2 20 4 20 2 0 6 -9 9 -20z m1278 -1
c11 -21 -10 -42 -30 -30 -9 6 -10 11 -2 15 6 4 11 2 11 -4 0 -6 4 -9 10 -5 16
10 -1 36 -20 30 -10 -3 -21 -2 -23 3 -3 4 6 8 19 7 14 0 30 -7 35 -16z m-2341
-20 c0 -5 -4 -9 -8 -9 -5 0 -9 7 -9 15 0 8 4 12 9 9 4 -3 8 -9 8 -15z m1530
-29 c0 -41 -3 -48 -16 -43 -10 4 -14 13 -10 27 3 11 6 31 6 44 0 12 5 22 10
22 6 0 10 -22 10 -50z m-793 8 c-3 -8 -6 -5 -6 6 -1 11 2 17 5 13 3 -3 4 -12
1 -19z m1158 12 c3 -5 -1 -10 -9 -10 -9 0 -16 5 -16 10 0 6 4 10 9 10 6 0 13
-4 16 -10z m-950 -10 c3 -5 1 -10 -4 -10 -6 0 -11 5 -11 10 0 6 2 10 4 10 3 0
8 -4 11 -10z m1410 0 c-3 -5 -2 -10 2 -10 5 0 9 -9 10 -20 1 -13 -2 -18 -9
-14 -7 4 -8 2 -4 -5 4 -6 11 -9 15 -6 5 2 9 -6 9 -20 0 -14 -4 -23 -7 -20 -4
2 -13 0 -21 -5 -9 -5 -20 -5 -28 2 -9 8 -16 8 -25 -1 -9 -9 -9 -14 3 -21 8 -5
13 -10 10 -11 -3 0 -12 -2 -21 -4 -13 -2 -16 5 -16 31 1 27 5 33 22 31 11 -1
24 -6 28 -12 5 -6 7 -4 5 4 -2 8 -14 15 -26 16 -12 1 -25 5 -29 10 -5 4 0 5
11 1 14 -5 17 -2 12 9 -4 10 -2 14 5 9 8 -4 9 1 4 15 -4 12 -2 21 4 21 11 0
15 -13 12 -37 -1 -6 4 -15 11 -19 7 -4 10 -4 6 1 -4 4 -3 17 3 28 8 14 8 18 0
13 -6 -4 -11 -3 -11 3 0 5 6 12 13 14 18 8 19 8 12 -3z m-2075 -10 c0 -5 -4
-10 -10 -10 -5 0 -10 5 -10 10 0 6 5 10 10 10 6 0 10 -4 10 -10z m330 0 c0 -5
-4 -10 -10 -10 -5 0 -10 5 -10 10 0 6 5 10 10 10 6 0 10 -4 10 -10z m-210 -57
c0 -29 -3 -33 -25 -33 -30 0 -30 -1 -8 50 19 43 33 36 33 -17z m166 -13 c-1
-42 -5 -69 -11 -67 -14 5 -18 82 -6 106 8 14 8 21 -2 24 -8 4 -6 6 4 6 13 1
15 -11 15 -69z m306 -28 c2 -30 -1 -52 -7 -52 -10 0 -10 15 -5 110 3 48 8 27
12 -58z m-1019 75 c3 -8 -3 -13 -14 -13 -22 0 -25 12 -6 19 6 3 13 6 13 6 1 1
4 -5 7 -12z m893 -8 c5 1 9 -7 9 -16 0 -32 -29 -20 -32 12 -1 19 1 25 6 17 5
-8 12 -13 17 -13z m1674 17 c0 -2 -7 -17 -15 -32 -14 -27 -15 -27 -15 -6 0 12
5 22 11 22 5 0 7 5 4 10 -3 6 -1 10 4 10 6 0 11 -2 11 -4z m-580 -47 c0 -5 -4
-9 -10 -9 -5 0 -10 7 -10 16 0 8 5 12 10 9 6 -3 10 -10 10 -16z m-310 -29 c0
-11 -4 -20 -10 -20 -5 0 -10 9 -10 20 0 11 5 20 10 20 6 0 10 -9 10 -20z
m-363 -27 c-3 -10 -5 -4 -5 12 0 17 2 24 5 18 2 -7 2 -21 0 -30z m87 22 c-4
-8 -11 -12 -16 -9 -6 4 -5 10 3 15 19 12 19 11 13 -6z m923 -67 c-2 -18 -4 -6
-4 27 0 33 2 48 4 33 2 -15 2 -42 0 -60z m-1340 40 c-3 -8 -6 -5 -6 6 -1 11 2
17 5 13 3 -3 4 -12 1 -19z m-18 -21 c0 -9 -2 -9 -5 -1 -3 7 -15 10 -27 8 -21
-4 -21 -4 -2 5 23 10 35 5 34 -12z m-194 3 c-3 -5 -12 -10 -18 -10 -7 0 -6 4
3 10 19 12 23 12 15 0z m212 -22 c-3 -8 -6 -5 -6 6 -1 11 2 17 5 13 3 -3 4
-12 1 -19z m329 -46 c-12 -12 -18 8 -10 35 l8 28 4 -28 c2 -16 1 -31 -2 -35z
m524 -22 c0 -44 -4 -70 -11 -70 -7 0 -9 19 -5 58 3 31 5 63 6 70 0 6 2 12 5
12 3 0 5 -31 5 -70z m-70 21 c0 -22 -4 -43 -10 -46 -6 -4 -10 12 -10 39 0 25
5 46 10 46 6 0 10 -18 10 -39z m-788 -6 c-8 -16 -9 -16 -15 -1 -4 10 -3 15 3
11 6 -3 10 -1 10 6 0 7 3 10 6 6 3 -3 2 -13 -4 -22z m1188 -22 c-1 -28 -3 -34
-10 -22 -8 14 -3 59 6 59 2 0 4 -17 4 -37z m-1214 1 c2 -12 -1 -13 -12 -3 -7
6 -11 16 -8 21 7 11 17 3 20 -18z m300 -29 c1 -8 -2 -13 -7 -9 -5 3 -9 12 -9
21 0 19 13 9 16 -12z m198 10 c3 -8 1 -15 -4 -15 -6 0 -10 7 -10 15 0 8 2 15
4 15 2 0 6 -7 10 -15z m33 -7 c-3 -8 -6 -5 -6 6 -1 11 2 17 5 13 3 -3 4 -12 1
-19z m-553 -28 c-6 -6 -10 -3 -10 10 0 13 4 16 10 10 7 -7 7 -13 0 -20z m516
-30 c0 -5 -5 -10 -11 -10 -5 0 -7 5 -4 10 3 6 8 10 11 10 2 0 4 -4 4 -10z m45
-224 c0 -54 -4 -81 -13 -84 -14 -4 -16 97 -5 224 l8 79 5 -70 c3 -38 5 -106 5
-149z m-535 42 c0 -12 -6 -9 -26 13 -19 22 -19 22 4 8 12 -8 22 -17 22 -21z
m-19 -15 c13 -16 12 -17 -3 -4 -17 13 -22 21 -14 21 2 0 10 -8 17 -17z m1769
-103 c0 -5 -5 -10 -11 -10 -5 0 -7 5 -4 10 3 6 8 10 11 10 2 0 4 -4 4 -10z"/>
<path d="M3321 2480 c1 -51 5 -87 9 -80 12 19 12 158 0 165 -7 4 -10 -23 -9
-85z"/>
<path d="M3178 2473 c5 -59 10 -63 11 -10 1 26 -3 47 -7 47 -4 0 -6 -17 -4
-37z"/>
<path d="M3025 2440 c3 -5 8 -10 11 -10 2 0 4 5 4 10 0 6 -5 10 -11 10 -5 0
-7 -4 -4 -10z"/>
<path d="M3033 2365 c0 -22 2 -30 4 -17 2 12 2 30 0 40 -3 9 -5 -1 -4 -23z"/>
<path d="M3320 2371 c0 -6 4 -13 10 -16 6 -3 7 1 4 9 -7 18 -14 21 -14 7z"/>
<path d="M3072 2130 c0 -14 2 -19 5 -12 2 6 2 18 0 25 -3 6 -5 1 -5 -13z"/>
<path d="M2781 2422 c0 -73 5 -132 9 -132 10 0 6 248 -4 257 -4 4 -6 -52 -5
-125z"/>
<path d="M2730 2330 c0 -5 5 -10 11 -10 5 0 7 5 4 10 -3 6 -8 10 -11 10 -2 0
-4 -4 -4 -10z"/>
<path d="M2742 2280 c0 -19 2 -27 5 -17 2 9 2 25 0 35 -3 9 -5 1 -5 -18z"/>
<path d="M1302 2525 c0 -16 2 -22 5 -12 2 9 2 23 0 30 -3 6 -5 -1 -5 -18z"/>
<path d="M1355 2290 c-3 -5 -1 -10 4 -10 6 0 11 5 11 10 0 6 -2 10 -4 10 -3 0
-8 -4 -11 -10z"/>
<path d="M1353 2255 c0 -8 4 -15 9 -15 4 0 8 7 8 15 0 8 -4 15 -8 15 -5 0 -9
-7 -9 -15z"/>
<path d="M1350 2190 c0 -22 4 -40 10 -40 5 0 9 18 8 40 -1 22 -5 40 -10 40 -4
0 -8 -18 -8 -40z"/>
<path d="M3627 2381 c-4 -17 -3 -21 5 -13 5 5 8 16 6 23 -3 8 -7 3 -11 -10z"/>
<path d="M2521 2374 c0 -11 3 -14 6 -6 3 7 2 16 -1 19 -3 4 -6 -2 -5 -13z"/>
<path d="M2055 1651 c-3 -5 -1 -12 5 -16 5 -3 10 1 10 9 0 18 -6 21 -15 7z"/>
<path d="M2610 4140 c0 -5 7 -10 16 -10 8 0 12 5 9 10 -3 6 -10 10 -16 10 -5
0 -9 -4 -9 -10z"/>
<path d="M2025 4130 c3 -5 8 -10 11 -10 2 0 4 5 4 10 0 6 -5 10 -11 10 -5 0
-7 -4 -4 -10z"/>
<path d="M2580 4094 c0 -9 5 -14 12 -12 18 6 21 28 4 28 -9 0 -16 -7 -16 -16z"/>
<path d="M2140 4085 c0 -8 7 -15 15 -15 8 0 15 7 15 15 0 8 -7 15 -15 15 -8 0
-15 -7 -15 -15z"/>
<path d="M1544 4045 c-6 -11 -7 -33 -4 -50 5 -23 8 -26 14 -13 4 9 6 31 4 50
-3 30 -4 31 -14 13z"/>
<path d="M3100 3995 c-20 -21 -22 -29 -12 -49 15 -35 49 -42 80 -19 36 27 37
39 8 68 -31 31 -46 31 -76 0z"/>
<path d="M1415 3970 c-3 -5 -1 -10 4 -10 6 0 11 5 11 10 0 6 -2 10 -4 10 -3 0
-8 -4 -11 -10z"/>
<path d="M1540 3949 c0 -5 5 -7 10 -4 6 3 10 8 10 11 0 2 -4 4 -10 4 -5 0 -10
-5 -10 -11z"/>
<path d="M1345 3920 c-10 -11 -16 -22 -13 -25 3 -3 13 6 22 20 20 30 16 32 -9
5z"/>
<path d="M2080 3885 c0 -9 5 -15 11 -13 6 2 11 8 11 13 0 5 -5 11 -11 13 -6 2
-11 -4 -11 -13z"/>
<path d="M2812 3888 c2 -6 10 -14 16 -16 7 -2 10 2 6 12 -7 18 -28 22 -22 4z"/>
<path d="M2925 3890 c-3 -5 1 -10 9 -10 9 0 16 5 16 10 0 6 -4 10 -9 10 -6 0
-13 -4 -16 -10z"/>
<path d="M3558 3893 c7 -3 16 -2 19 1 4 3 -2 6 -13 5 -11 0 -14 -3 -6 -6z"/>
<path d="M3620 3890 c0 -5 5 -10 11 -10 5 0 7 5 4 10 -3 6 -8 10 -11 10 -2 0
-4 -4 -4 -10z"/>
<path d="M2170 3880 c0 -5 5 -10 10 -10 6 0 10 5 10 10 0 6 -4 10 -10 10 -5 0
-10 -4 -10 -10z"/>
<path d="M1285 3870 c-3 -5 -1 -10 4 -10 6 0 11 5 11 10 0 6 -2 10 -4 10 -3 0
-8 -4 -11 -10z"/>
<path d="M3490 3840 c0 -5 5 -10 10 -10 6 0 10 5 10 10 0 6 -4 10 -10 10 -5 0
-10 -4 -10 -10z"/>
<path d="M3548 3843 c7 -3 16 -2 19 1 4 3 -2 6 -13 5 -11 0 -14 -3 -6 -6z"/>
<path d="M3623 3835 c0 -8 4 -15 9 -15 4 0 8 7 8 15 0 8 -4 15 -8 15 -5 0 -9
-7 -9 -15z"/>
<path d="M1430 3830 c0 -5 5 -10 10 -10 6 0 10 5 10 10 0 6 -4 10 -10 10 -5 0
-10 -4 -10 -10z"/>
<path d="M2470 3825 c0 -8 2 -15 4 -15 2 0 6 7 10 15 3 8 1 15 -4 15 -6 0 -10
-7 -10 -15z"/>
<path d="M2970 3826 c0 -9 5 -16 10 -16 6 0 10 4 10 9 0 6 -4 13 -10 16 -5 3
-10 -1 -10 -9z"/>
<path d="M1219 3813 c-13 -16 -12 -17 4 -4 9 7 17 15 17 17 0 8 -8 3 -21 -13z"/>
<path d="M3595 3799 c-23 -5 -16 -7 28 -8 31 0 57 1 57 3 0 8 -56 11 -85 5z"/>
<path d="M2835 3786 c-18 -13 -24 -64 -10 -86 10 -16 40 -12 69 11 32 25 32
33 1 64 -28 29 -34 30 -60 11z"/>
<path d="M3250 3790 c0 -5 7 -10 15 -10 8 0 15 5 15 10 0 6 -7 10 -15 10 -8 0
-15 -4 -15 -10z"/>
<path d="M3300 3789 c0 -5 5 -7 10 -4 6 3 10 8 10 11 0 2 -4 4 -10 4 -5 0 -10
-5 -10 -11z"/>
<path d="M3353 3793 c9 -2 23 -2 30 0 6 3 -1 5 -18 5 -16 0 -22 -2 -12 -5z"/>
<path d="M3410 3790 c0 -5 5 -10 10 -10 6 0 10 5 10 10 0 6 -4 10 -10 10 -5 0
-10 -4 -10 -10z"/>
<path d="M3460 3790 c0 -5 7 -10 15 -10 8 0 15 5 15 10 0 6 -7 10 -15 10 -8 0
-15 -4 -15 -10z"/>
<path d="M3510 3790 c0 -5 9 -10 20 -10 11 0 20 5 20 10 0 6 -9 10 -20 10 -11
0 -20 -4 -20 -10z"/>
<path d="M2970 3775 c0 -10 7 -15 18 -13 21 4 19 22 -2 26 -10 2 -16 -3 -16
-13z"/>
<path d="M1546 3744 c-4 -9 -4 -19 -1 -22 2 -3 7 3 11 12 4 9 4 19 1 22 -2 3
-7 -3 -11 -12z"/>
<path d="M1834 3733 c1 -7 8 -19 16 -26 12 -10 12 -9 1 6 -9 11 -10 17 -2 17
6 0 11 4 11 8 0 5 -6 9 -14 9 -7 0 -13 -6 -12 -14z"/>
<path d="M3295 3740 c-17 -7 -14 -9 13 -9 20 -1 31 3 27 9 -7 12 -13 12 -40 0z"/>
<path d="M3360 3740 c0 -5 5 -10 10 -10 6 0 10 5 10 10 0 6 -4 10 -10 10 -5 0
-10 -4 -10 -10z"/>
<path d="M3460 3740 c0 -5 9 -10 20 -10 11 0 20 5 20 10 0 6 -9 10 -20 10 -11
0 -20 -4 -20 -10z"/>
<path d="M3538 3743 c7 -3 16 -2 19 1 4 3 -2 6 -13 5 -11 0 -14 -3 -6 -6z"/>
<path d="M3588 3743 c7 -3 16 -2 19 1 4 3 -2 6 -13 5 -11 0 -14 -3 -6 -6z"/>
<path d="M3735 3740 c3 -5 8 -10 11 -10 2 0 4 5 4 10 0 6 -5 10 -11 10 -5 0
-7 -4 -4 -10z"/>
<path d="M3130 3720 c0 -5 5 -10 10 -10 6 0 10 5 10 10 0 6 -4 10 -10 10 -5 0
-10 -4 -10 -10z"/>
<path d="M1075 3662 c-22 -26 -28 -36 -13 -23 20 18 31 21 40 13 10 -8 13 -3
14 24 0 19 0 34 0 33 -1 0 -19 -22 -41 -47z"/>
<path d="M1823 3687 c-2 -4 -1 -7 4 -6 24 4 35 -2 29 -17 -5 -14 -4 -15 9 -4
13 11 15 9 16 -11 0 -13 3 -18 6 -11 3 7 1 20 -3 30 -4 9 -7 19 -6 22 1 8 -50
6 -55 -3z"/>
<path d="M3445 3690 c-3 -5 1 -10 9 -10 9 0 16 5 16 10 0 6 -4 10 -9 10 -6 0
-13 -4 -16 -10z"/>
<path d="M3500 3690 c0 -5 5 -10 10 -10 6 0 10 5 10 10 0 6 -4 10 -10 10 -5 0
-10 -4 -10 -10z"/>
<path d="M3560 3690 c0 -5 5 -10 10 -10 6 0 10 5 10 10 0 6 -4 10 -10 10 -5 0
-10 -4 -10 -10z"/>
<path d="M3700 3690 c0 -5 5 -10 10 -10 6 0 10 5 10 10 0 6 -4 10 -10 10 -5 0
-10 -4 -10 -10z"/>
<path d="M2050 3680 c0 -5 5 -10 10 -10 6 0 10 5 10 10 0 6 -4 10 -10 10 -5 0
-10 -4 -10 -10z"/>
<path d="M3308 3683 c6 -2 18 -2 25 0 6 3 1 5 -13 5 -14 0 -19 -2 -12 -5z"/>
<path d="M3408 3683 c7 -3 16 -2 19 1 4 3 -2 6 -13 5 -11 0 -14 -3 -6 -6z"/>
<path d="M3655 3680 c4 -6 11 -8 16 -5 14 9 11 15 -7 15 -8 0 -12 -5 -9 -10z"/>
<path d="M2975 3671 c-6 -11 9 -23 19 -14 9 9 7 23 -3 23 -6 0 -12 -4 -16 -9z"/>
<path d="M1813 3656 c0 -7 6 -13 14 -13 7 0 13 4 13 8 0 4 -6 9 -13 12 -8 3
-14 0 -14 -7z"/>
<path d="M1360 3640 c0 -5 7 -10 16 -10 8 0 12 5 9 10 -3 6 -10 10 -16 10 -5
0 -9 -4 -9 -10z"/>
<path d="M1430 3640 c0 -5 5 -10 11 -10 5 0 7 5 4 10 -3 6 -8 10 -11 10 -2 0
-4 -4 -4 -10z"/>
<path d="M1845 3630 c-4 -6 -3 -16 3 -22 13 -13 23 4 13 21 -7 10 -10 10 -16
1z"/>
<path d="M3308 3633 c7 -3 16 -2 19 1 4 3 -2 6 -13 5 -11 0 -14 -3 -6 -6z"/>
<path d="M3448 3633 c7 -3 16 -2 19 1 4 3 -2 6 -13 5 -11 0 -14 -3 -6 -6z"/>
<path d="M3508 3633 c7 -3 16 -2 19 1 4 3 -2 6 -13 5 -11 0 -14 -3 -6 -6z"/>
<path d="M1020 3595 c-7 -9 -8 -15 -2 -15 5 0 12 7 16 15 3 8 4 15 2 15 -2 0
-9 -7 -16 -15z"/>
<path d="M3258 3583 c7 -3 16 -2 19 1 4 3 -2 6 -13 5 -11 0 -14 -3 -6 -6z"/>
<path d="M3308 3583 c7 -3 16 -2 19 1 4 3 -2 6 -13 5 -11 0 -14 -3 -6 -6z"/>
<path d="M3408 3583 c7 -3 16 -2 19 1 4 3 -2 6 -13 5 -11 0 -14 -3 -6 -6z"/>
<path d="M3448 3583 c6 -2 18 -2 25 0 6 3 1 5 -13 5 -14 0 -19 -2 -12 -5z"/>
<path d="M3548 3583 c7 -3 16 -2 19 1 4 3 -2 6 -13 5 -11 0 -14 -3 -6 -6z"/>
<path d="M2891 3563 c-1 -29 15 -38 22 -13 3 11 1 18 -3 15 -5 -3 -11 1 -13 7
-3 7 -6 3 -6 -9z"/>
<path d="M2040 3560 c0 -5 5 -10 11 -10 5 0 7 5 4 10 -3 6 -8 10 -11 10 -2 0
-4 -4 -4 -10z"/>
<path d="M3940 3560 c0 -5 5 -10 11 -10 5 0 7 5 4 10 -3 6 -8 10 -11 10 -2 0
-4 -4 -4 -10z"/>
<path d="M979 3543 c-13 -16 -12 -17 4 -4 16 13 21 21 13 21 -2 0 -10 -8 -17
-17z"/>
<path d="M1842 3543 c5 -7 14 -10 19 -7 16 10 9 23 -10 21 -15 -1 -17 -4 -9
-14z"/>
<path d="M3465 3540 c3 -5 8 -10 11 -10 2 0 4 5 4 10 0 6 -5 10 -11 10 -5 0
-7 -4 -4 -10z"/>
<path d="M3510 3540 c0 -5 4 -10 9 -10 6 0 13 5 16 10 3 6 -1 10 -9 10 -9 0
-16 -4 -16 -10z"/>
<path d="M2820 3510 c-9 -17 -8 -20 10 -20 13 0 20 7 20 20 0 11 -4 20 -10 20
-5 0 -14 -9 -20 -20z"/>
<path d="M954 3505 c-3 -8 -4 -20 -2 -27 3 -7 7 -1 10 15 6 29 1 36 -8 12z"/>
<path d="M901 3429 c-7 -12 -10 -23 -8 -26 3 -3 11 5 17 17 15 28 8 35 -9 9z"/>
<path d="M3417 3386 c3 -32 0 -63 -7 -76 -8 -15 -8 -20 -1 -16 6 4 11 0 11 -8
0 -9 3 -16 8 -16 13 0 8 163 -4 167 -9 3 -11 -12 -7 -51z"/>
<path d="M3774 3419 c-8 -14 11 -33 25 -25 11 7 4 36 -9 36 -5 0 -12 -5 -16
-11z"/>
<path d="M3533 3403 c-7 -2 -13 -14 -13 -25 0 -14 6 -19 23 -16 14 2 22 10 22
22 0 21 -12 28 -32 19z"/>
<path d="M1286 3373 c-11 -11 -6 -23 9 -23 8 0 15 4 15 9 0 13 -16 22 -24 14z"/>
<path d="M3231 3364 c0 -11 3 -14 6 -6 3 7 2 16 -1 19 -3 4 -6 -2 -5 -13z"/>
<path d="M3445 3360 c4 -6 11 -8 16 -5 14 9 11 15 -7 15 -8 0 -12 -5 -9 -10z"/>
<path d="M3490 3302 c0 -23 8 -32 25 -26 17 7 7 44 -11 44 -8 0 -14 -8 -14
-18z"/>
<path d="M803 3245 c0 -8 4 -15 9 -15 4 0 8 4 8 9 0 6 -4 12 -8 15 -5 3 -9 -1
-9 -9z"/>
<path d="M3450 3242 c0 -24 30 -38 42 -20 12 19 4 33 -20 36 -16 3 -22 -2 -22
-16z"/>
<path d="M1290 3200 c0 -5 7 -10 16 -10 8 0 12 5 9 10 -3 6 -10 10 -16 10 -5
0 -9 -4 -9 -10z"/>
<path d="M756 3162 c-10 -20 -15 -34 -11 -31 3 4 22 3 41 -1 19 -4 34 -4 34 1
0 5 -8 9 -19 9 -14 0 -17 6 -14 24 8 39 -12 38 -31 -2z"/>
<path d="M902 3170 c0 -14 2 -19 5 -12 2 6 2 18 0 25 -3 6 -5 1 -5 -13z"/>
<path d="M3396 3158 c3 -5 10 -6 15 -3 13 9 11 12 -6 12 -8 0 -12 -4 -9 -9z"/>
<path d="M1990 3134 c0 -8 5 -12 10 -9 6 3 10 10 10 16 0 5 -4 9 -10 9 -5 0
-10 -7 -10 -16z"/>
<path d="M4246 3042 c-3 -5 1 -9 9 -9 8 0 12 4 9 9 -3 4 -7 8 -9 8 -2 0 -6 -4
-9 -8z"/>
<path d="M942 2970 c0 -19 2 -27 5 -17 2 9 2 25 0 35 -3 9 -5 1 -5 -18z"/>
<path d="M4300 2839 c0 -5 5 -7 10 -4 6 3 10 8 10 11 0 2 -4 4 -10 4 -5 0 -10
-5 -10 -11z"/>
<path d="M577 1813 c-4 -3 -7 -11 -7 -17 0 -6 5 -5 12 2 6 6 9 14 7 17 -3 3
-9 2 -12 -2z"/>
<path d="M618 1808 c-5 -11 -2 -15 10 -14 9 2 18 9 20 17 3 12 2 12 -6 0 -8
-11 -10 -11 -14 0 -3 10 -6 9 -10 -3z"/>
<path d="M545 1800 c-3 -5 -1 -10 4 -10 6 0 11 5 11 10 0 6 -2 10 -4 10 -3 0
-8 -4 -11 -10z"/>
<path d="M706 1773 c-6 -14 -5 -15 5 -6 7 7 10 15 7 18 -3 3 -9 -2 -12 -12z"/>
<path d="M3790 1768 c1 -37 13 -40 201 -38 101 0 184 2 185 3 1 1 5 12 8 25
l7 22 -200 0 c-154 0 -201 -3 -201 -12z"/>
<path d="M3497 1736 c-4 -10 -1 -13 9 -9 7 3 14 9 14 14 0 14 -17 10 -23 -5z"/>
<path d="M3776 1726 c3 -9 11 -16 16 -16 13 0 5 23 -10 28 -7 2 -10 -2 -6 -12z"/>
<path d="M3791 1676 c-6 -7 -8 -16 -5 -19 3 -3 3 -11 -1 -17 -6 -9 -10 -9 -16
1 -7 11 -9 10 -9 -3 0 -14 7 -17 33 -14 17 3 100 5 183 5 l151 1 11 25 12 25
-158 1 c-86 0 -165 2 -174 4 -9 2 -22 -3 -27 -9z"/>
<path d="M3437 1643 c-8 -8 -12 -9 -39 -12 -10 -1 -9 -4 1 -10 8 -5 11 -16 8
-26 -4 -9 -12 -13 -18 -9 -8 4 -9 3 -5 -4 4 -6 2 -22 -4 -34 -11 -22 -10 -22
4 -4 9 11 16 24 16 29 0 5 5 7 12 5 13 -5 19 -48 6 -48 -4 0 -8 -6 -8 -14 0
-8 -6 -17 -12 -19 -10 -4 -10 -6 -1 -6 8 -1 10 -8 6 -18 -7 -17 -5 -17 17 -2
15 10 25 27 26 41 1 36 14 54 25 37 6 -9 9 -10 9 -2 0 6 -6 18 -14 26 -8 8
-16 29 -18 46 -2 18 -7 29 -11 24z"/>
<path d="M3483 1614 c-3 -8 -1 -20 6 -27 14 -14 47 15 37 32 -10 16 -36 13
-43 -5z"/>
<path d="M885 1610 c-3 -5 1 -10 10 -10 9 0 13 5 10 10 -3 6 -8 10 -10 10 -2
0 -7 -4 -10 -10z"/>
<path d="M1015 1590 c3 -5 8 -10 11 -10 2 0 4 5 4 10 0 6 -5 10 -11 10 -5 0
-7 -4 -4 -10z"/>
<path d="M1287 1584 c-3 -5 1 -17 8 -27 7 -10 16 -14 19 -9 3 5 -1 17 -8 27
-7 10 -15 14 -19 9z"/>
<path d="M3808 1576 c3 -5 -3 -6 -13 -2 -16 6 -16 4 -4 -10 8 -10 15 -12 17
-5 8 23 18 9 14 -19 -5 -36 -19 -39 -32 -7 -5 12 -9 16 -9 9 -1 -7 -5 -10 -11
-7 -5 3 -10 0 -10 -8 0 -8 11 -18 25 -21 14 -4 23 -11 20 -16 -3 -6 -1 -10 4
-10 6 0 11 6 11 13 0 9 3 8 9 -2 6 -10 10 -10 16 -1 10 16 25 -6 25 -37 0 -13
4 -23 8 -23 5 0 14 -12 21 -27 10 -21 14 -24 21 -13 7 11 9 10 7 -7 -1 -18 -4
-20 -20 -11 -16 8 -17 7 -8 -10 8 -15 7 -23 -3 -31 -7 -6 -15 -9 -17 -6 -3 2
-5 -5 -6 -15 -3 -40 17 -22 105 95 34 46 41 63 27 69 -9 3 -12 12 -8 23 5 17
5 17 -9 0 -13 -18 -15 -18 -29 -1 -7 10 -9 15 -2 11 6 -4 13 -3 15 2 1 6 22
11 44 12 34 2 45 8 58 30 l17 28 -145 3 c-86 2 -142 -1 -138 -6z m62 -30 c0
-8 -7 -16 -15 -20 -13 -4 -14 -2 -5 14 13 23 20 26 20 6z m61 -35 c-7 -5 -12
-11 -11 -15 1 -4 -1 -12 -4 -19 -2 -6 -4 -3 -3 8 3 26 17 48 25 40 4 -3 1 -10
-7 -14z m-1 -61 c0 -5 -5 -10 -11 -10 -5 0 -7 -4 -4 -10 3 -5 1 -10 -4 -10
-12 0 -15 23 -4 33 10 10 23 8 23 -3z"/>
<path d="M1472 1555 c0 -16 2 -22 5 -12 2 9 2 23 0 30 -3 6 -5 -1 -5 -18z"/>
<path d="M945 1561 c3 -6 -2 -11 -12 -12 -10 0 -13 -3 -5 -6 6 -2 12 -11 12
-19 0 -8 6 -14 13 -14 8 0 7 -4 -3 -10 -8 -5 -10 -10 -4 -10 18 0 24 12 14 31
-7 13 -6 18 5 21 12 2 11 6 -6 16 -11 8 -18 9 -14 3z"/>
<path d="M3517 1547 c-8 -22 17 -51 37 -44 25 10 17 51 -10 55 -12 2 -24 -3
-27 -11z"/>
<path d="M3351 1504 c7 -8 6 -14 -1 -17 -6 -3 -6 -5 1 -3 17 3 20 33 3 33 -10
0 -11 -4 -3 -13z"/>
<path d="M966 1482 c-3 -5 1 -9 9 -9 8 0 12 4 9 9 -3 4 -7 8 -9 8 -2 0 -6 -4
-9 -8z"/>
<path d="M2815 1438 c-4 -9 -1 -34 6 -55 7 -21 12 -44 11 -50 -2 -7 1 -13 5
-13 5 0 9 15 10 33 0 17 5 47 11 64 10 30 9 32 -8 23 -13 -7 -20 -6 -23 3 -3
8 -7 7 -12 -5z"/>
<path d="M2890 1392 c0 -32 11 -52 29 -52 9 0 12 3 6 8 -6 4 -11 18 -10 31 0
13 -6 26 -12 28 -8 3 -13 -4 -13 -15z"/>
<path d="M2040 1364 c0 -8 5 -12 10 -9 6 3 10 10 10 16 0 5 -4 9 -10 9 -5 0
-10 -7 -10 -16z"/>
<path d="M3131 1324 c0 -11 3 -14 6 -6 3 7 2 16 -1 19 -3 4 -6 -2 -5 -13z"/>
<path d="M1773 1295 c0 -7 6 -11 14 -8 7 3 13 6 13 8 0 2 -6 5 -13 8 -8 3 -14
-1 -14 -8z"/>
<path d="M1431 1284 c0 -11 3 -14 6 -6 3 7 2 16 -1 19 -3 4 -6 -2 -5 -13z"/>
<path d="M1360 1275 c0 -8 5 -15 10 -15 6 0 10 7 10 15 0 8 -4 15 -10 15 -5 0
-10 -7 -10 -15z"/>
<path d="M2800 1269 c0 -5 5 -7 10 -4 6 3 10 8 10 11 0 2 -4 4 -10 4 -5 0 -10
-5 -10 -11z"/>
<path d="M2831 1244 c-25 -32 -26 -43 -5 -72 19 -27 48 -28 74 -2 27 27 26 65
-2 84 -31 22 -43 20 -67 -10z"/>
<path d="M2970 1255 c0 -8 7 -15 15 -15 8 0 15 7 15 15 0 8 -7 15 -15 15 -8 0
-15 -7 -15 -15z"/>
<path d="M3451 1254 c0 -11 3 -14 6 -6 3 7 2 16 -1 19 -3 4 -6 -2 -5 -13z"/>
<path d="M3780 1259 c0 -5 9 -9 20 -9 11 0 20 2 20 4 0 2 -9 6 -20 9 -11 3
-20 1 -20 -4z"/>
<path d="M3565 1250 c-3 -5 -1 -10 4 -10 6 0 11 5 11 10 0 6 -2 10 -4 10 -3 0
-8 -4 -11 -10z"/>
<path d="M2054 1236 c-8 -22 3 -33 18 -18 9 9 9 15 0 24 -9 9 -13 7 -18 -6z"/>
<path d="M3130 1225 c0 -9 5 -15 11 -13 6 2 11 8 11 13 0 5 -5 11 -11 13 -6 2
-11 -4 -11 -13z"/>
<path d="M3786 1228 c3 -4 11 -5 19 -1 21 7 19 12 -4 10 -11 0 -18 -5 -15 -9z"/>
<path d="M1876 1205 c-5 -15 -31 -16 -52 -3 -15 10 -19 -115 -5 -141 8 -13 8
-20 1 -23 -7 -2 -5 -11 4 -23 15 -20 15 -20 9 3 -3 13 -1 22 6 22 7 0 9 -4 6
-10 -3 -6 1 -7 9 -4 9 3 14 10 11 14 -3 5 0 12 6 15 5 4 8 13 5 21 -3 7 -1 16
4 19 6 4 5 14 -2 25 -7 10 -16 16 -22 13 -5 -3 -6 -1 -2 6 6 9 11 9 22 0 12
-9 13 -6 10 22 -2 19 1 37 6 40 7 4 7 9 0 13 -5 3 -12 -1 -16 -9z m-22 -40
c-4 -8 -8 -15 -10 -15 -2 0 -4 7 -4 15 0 8 4 15 10 15 5 0 7 -7 4 -15z m16
-56 c11 -8 9 -9 -10 -3 -22 6 -23 5 -12 -9 9 -10 10 -17 2 -22 -6 -3 -8 -11
-5 -16 4 -5 1 -9 -4 -9 -6 0 -11 7 -11 15 0 8 6 15 13 15 9 0 8 3 -2 9 -7 5
-10 14 -7 20 9 14 17 14 36 0z"/>
<path d="M3569 1193 c-13 -16 -12 -17 4 -4 16 13 21 21 13 21 -2 0 -10 -8 -17
-17z"/>
<path d="M3790 1199 c0 -5 5 -7 10 -4 6 3 10 8 10 11 0 2 -4 4 -10 4 -5 0 -10
-5 -10 -11z"/>
<path d="M2165 1190 c3 -5 8 -10 11 -10 2 0 4 5 4 10 0 6 -5 10 -11 10 -5 0
-7 -4 -4 -10z"/>
<path d="M2190 1190 c0 -5 5 -10 10 -10 6 0 10 5 10 10 0 6 -4 10 -10 10 -5 0
-10 -4 -10 -10z"/>
<path d="M3440 1192 c0 -10 41 -35 48 -28 3 3 0 6 -6 6 -7 0 -12 7 -12 15 0 8
-7 15 -15 15 -8 0 -15 -3 -15 -8z"/>
<path d="M2975 1170 c-10 -30 5 -47 22 -25 7 11 13 25 13 32 0 21 -28 15 -35
-7z"/>
<path d="M3686 1171 c-14 -15 -15 -21 -4 -27 7 -4 10 -3 5 1 -4 5 0 17 10 27
9 10 14 18 11 18 -3 0 -13 -9 -22 -19z"/>
<path d="M1345 1160 c-3 -5 -1 -10 4 -10 6 0 11 5 11 10 0 6 -2 10 -4 10 -3 0
-8 -4 -11 -10z"/>
<path d="M2165 1140 c-3 -5 -1 -10 4 -10 6 0 11 5 11 10 0 6 -2 10 -4 10 -3 0
-8 -4 -11 -10z"/>
<path d="M2470 1101 c0 -17 5 -31 10 -31 6 0 10 11 10 24 0 14 -4 28 -10 31
-6 4 -10 -7 -10 -24z"/>
<path d="M3663 1115 c0 -6 6 -12 12 -12 6 0 12 6 12 12 0 6 -6 12 -12 12 -6 0
-12 -6 -12 -12z"/>
<path d="M2800 1103 c0 -5 7 -17 15 -27 14 -19 15 -19 15 7 0 17 -5 27 -15 27
-8 0 -15 -3 -15 -7z"/>
<path d="M3406 1098 c3 -4 9 -8 15 -8 5 0 9 4 9 8 0 5 -7 9 -15 9 -8 0 -12 -4
-9 -9z"/>
<path d="M3440 1065 c-7 -9 -8 -15 -2 -15 5 0 12 7 16 15 3 8 4 15 2 15 -2 0
-9 -7 -16 -15z"/>
<path d="M2934 1046 c-8 -22 3 -33 18 -18 9 9 9 15 0 24 -9 9 -13 7 -18 -6z"/>
<path d="M3554 1049 c-3 -6 -2 -15 3 -20 5 -5 9 -1 9 11 0 23 -2 24 -12 9z"/>
<path d="M1476 1025 c-3 -9 -12 -12 -23 -9 -15 5 -15 3 1 -7 15 -9 21 -9 24
-1 2 7 8 10 13 7 5 -4 6 1 3 9 -8 20 -10 20 -18 1z"/>
<path d="M2160 1030 c0 -5 7 -10 15 -10 8 0 15 5 15 10 0 6 -7 10 -15 10 -8 0
-15 -4 -15 -10z"/>
<path d="M2077 1024 c-8 -8 1 -24 14 -24 5 0 9 7 9 15 0 15 -12 20 -23 9z"/>
<path d="M3324 1019 c-4 -8 -3 -9 5 -5 8 6 10 0 6 -21 -3 -15 -2 -22 1 -15 3
6 9 10 14 7 4 -3 6 4 3 15 -7 26 -19 34 -29 19z"/>
<path d="M3405 1020 c-3 -5 -5 -10 -3 -11 27 -6 39 -5 49 7 8 10 8 14 0 14 -6
0 -11 -5 -11 -11 0 -8 -4 -8 -14 0 -10 8 -16 9 -21 1z"/>
<path d="M3841 1014 c0 -11 3 -14 6 -6 3 7 2 16 -1 19 -3 4 -6 -2 -5 -13z"/>
<path d="M1490 971 c0 -16 -5 -31 -12 -33 -7 -3 -6 -7 5 -11 14 -5 17 0 17 33
0 22 -2 40 -5 40 -3 0 -5 -13 -5 -29z"/>
<path d="M3109 981 c-22 -18 -23 -19 -5 -45 34 -52 105 -16 76 38 -16 31 -39
33 -71 7z"/>
<path d="M1547 943 c-12 -11 -8 -33 6 -33 7 0 13 9 14 20 2 20 -8 26 -20 13z"/>
<path d="M2875 910 c3 -5 11 -10 16 -10 6 0 7 5 4 10 -3 6 -11 10 -16 10 -6 0
-7 -4 -4 -10z"/>
<path d="M2998 913 c6 -2 12 -9 12 -15 0 -6 -7 -7 -16 -4 -21 8 -34 -1 -28
-19 4 -8 11 -12 16 -9 6 4 5 10 -3 16 -11 8 -11 9 1 5 8 -2 14 -12 13 -21 -1
-16 0 -16 17 1 19 19 10 54 -13 52 -9 0 -9 -2 1 -6z"/>
<path d="M1553 879 c11 -7 23 -7 28 -2 5 5 -3 9 -19 11 -24 1 -25 0 -9 -9z"/>
<path d="M2886 873 c-6 -14 -5 -15 5 -6 7 7 10 15 7 18 -3 3 -9 -2 -12 -12z"/>
<path d="M2460 870 c0 -6 4 -9 9 -6 5 4 12 1 14 -4 3 -6 4 -5 3 2 -3 15 -26
23 -26 8z"/>
<path d="M1855 850 c3 -5 8 -10 11 -10 2 0 4 5 4 10 0 6 -5 10 -11 10 -5 0 -7
-4 -4 -10z"/>
<path d="M2885 851 c-11 -5 -24 -6 -30 -3 -5 3 -4 -1 2 -8 9 -9 9 -17 2 -26
-6 -8 -7 -14 0 -18 5 -4 12 -2 16 4 3 5 3 10 -1 10 -4 0 3 11 16 25 25 27 25
28 -5 16z"/>
<path d="M2140 825 c0 -8 7 -15 15 -15 8 0 15 7 15 15 0 8 -7 15 -15 15 -8 0
-15 -7 -15 -15z"/>
<path d="M2580 819 c0 -24 23 -21 28 4 2 10 -3 17 -12 17 -10 0 -16 -9 -16
-21z"/>
<path d="M2906 832 c-3 -5 1 -9 9 -9 8 0 12 4 9 9 -3 4 -7 8 -9 8 -2 0 -6 -4
-9 -8z"/>
<path d="M2030 805 c0 -8 4 -15 10 -15 5 0 7 7 4 15 -4 8 -8 15 -10 15 -2 0
-4 -7 -4 -15z"/>
<path d="M2825 811 c-3 -5 -2 -12 3 -15 5 -3 9 1 9 9 0 17 -3 19 -12 6z"/>
<path d="M2476 795 c4 -8 8 -15 10 -15 2 0 4 7 4 15 0 8 -4 15 -10 15 -5 0 -7
-7 -4 -15z"/>
<path d="M2889 788 l-24 -19 25 12 c14 7 31 12 38 11 16 -4 16 4 -1 11 -7 3
-24 -4 -38 -15z"/>
<path d="M2786 759 c14 -15 57 -20 69 -7 4 4 -1 5 -12 4 -24 -4 -38 5 -23 14
7 5 0 7 -18 7 -28 -2 -29 -3 -16 -18z"/>
<path d="M2769 748 c-5 -18 -6 -38 -1 -34 7 8 12 36 6 36 -2 0 -4 -1 -5 -2z"/>
<path d="M2290 710 c0 -5 5 -10 11 -10 5 0 7 5 4 10 -3 6 -8 10 -11 10 -2 0
-4 -4 -4 -10z"/>
<path d="M1920 707 c0 -3 15 -10 32 -16 18 -6 28 -7 23 -2 -12 10 -55 25 -55
18z"/>
<path d="M2676 701 c-4 -5 -2 -12 3 -15 5 -4 12 -2 15 3 4 5 2 12 -3 15 -5 4
-12 2 -15 -3z"/>
<path d="M1990 682 c0 -13 150 -49 230 -56 63 -5 63 -5 -16 8 -70 12 -161 35
-201 52 -7 3 -13 1 -13 -4z"/>
<path d="M2736 648 c3 -5 10 -6 15 -3 13 9 11 12 -6 12 -8 0 -12 -4 -9 -9z"/>
</g>
</svg>
